<svg id="Layer_1" data-name="Layer 1" xmlns="http://www.w3.org/2000/svg" xmlns:xlink="http://www.w3.org/1999/xlink" viewBox="0 0 328.58 68.04"><defs><style>.cls-1,.cls-7,.cls-8{fill:none;}.cls-2{clip-path:url(#clip-path);}.cls-3{fill:#1d1d1b;}.cls-4{fill:#fff;}.cls-5{fill:#e63027;}.cls-6{fill:#ffe000;}.cls-7,.cls-8{stroke:#1d1d1b;}.cls-7{stroke-width:0.15px;}.cls-8{stroke-width:0.05px;}</style><clipPath id="clip-path" transform="translate(0 -0.96)"><rect class="cls-1" y="0.96" width="328.58" height="68.04"/></clipPath></defs><g class="cls-2"><path class="cls-3" d="M13.49,2H44.72l1.43,0h3.17c1.52,0,4-.07,7.55-.22l1.32-.05C58,4.49,58,5.56,58,7l0,4.2V37.4c0,14-3.17,18.74-18.26,26.19-.67.33-8.36,4.17-9.16,4.6l-.75.41L29,69l-.77-.4-.77-.41c-3.18-1.66-6.39-3.12-8.89-4.35C4.72,57.06.29,52.25.29,37.4V15.19l0-4L.24,7A42.1,42.1,0,0,0,0,1.75l1.32.05C4.79,2,7.38,2,8.89,2H12l1.45,0" transform="translate(0 -0.96)"/><polyline class="cls-4" points="28.98 66.68 34.92 63.76 35.07 63.71 35.03 63.58 35.03 36.23 34.98 36.07 35.16 36.1 56.67 36.1 56.86 36.16 56.8 35.92 56.8 24.33 56.86 24.14 56.67 24.2 35.16 24.2 34.98 24.23 35.03 24.05 35.03 2.29 35.07 2.11 34.9 2.17 23.12 2.17 22.94 2.11 22.99 2.29 22.99 24.05 23.03 24.23 22.86 24.2 1.52 24.2 1.33 24.14 1.39 24.33 1.39 36.03 1.33 36.16 1.52 36.1 22.86 36.1 23.03 36.07 22.99 36.29 22.99 63.52 22.94 63.74 23.09 63.78 28.98 66.68"/><polyline class="cls-5" points="1.61 2.17 1.33 2.11 1.39 2.31 1.39 24.09 1.33 24.25 1.59 24.2 22.84 24.2 23.03 24.25 22.99 24.07 22.99 2.26 23.03 2.11 22.84 2.17 1.61 2.17"/><polyline class="cls-5" points="35.25 2.17 34.99 2.11 35.03 2.31 35.03 24.09 34.99 24.25 35.23 24.2 56.65 24.2 56.86 24.25 56.8 24.07 56.8 2.26 56.86 2.11 56.65 2.17 35.25 2.17"/><path class="cls-5" d="M22.94,37.07H1.46L1.33,37l.06.15v1.3c0,11.95,4,17.77,16.27,23.7L21.54,64l1.36.63.11.13,0-.18V37.18L23,37l-.09.06" transform="translate(0 -0.96)"/><path class="cls-5" d="M35.14,37.07,35,37l0,.13v27.4l0,.2.15-.16L36.37,64C53.05,56.17,56.8,51.49,56.8,38.57V37.2l.06-.19-.19.06H35.14" transform="translate(0 -0.96)"/><path class="cls-3" d="M4.88,26.24l.13.14.15.17.17.17.15.15-.1.07-.18.17-.15.17-.06,0v.18a3.8,3.8,0,0,0,1.23,3.2l.15.12-.15.1H6.05l-.35,0-.32-.06-.18,0L5,32.12H4.75l-.18-1.33-.19,0-.3.06-.37,0H3.54c-.07,0-.14,0-.14-.05s0-.08.09-.12l.28-.22a2.3,2.3,0,0,0,.65-.94A1.53,1.53,0,0,0,4.6,29c0-.39.06-.7.13-.7l0-.69,0-.26-.08,0-.14-.17-.19-.17-.07-.07.14-.15a3.18,3.18,0,0,0,.43-.48" transform="translate(0 -0.96)"/><path class="cls-3" d="M11.92,26.24a3.85,3.85,0,0,0,.43.48l.15.15-.08.07-.18.17-.15.17-.09,0,0,.26,0,.69a3.3,3.3,0,0,0,1.17,2.43c.1.06.16.1.16.12a.1.1,0,0,1-.09.1h-.24l-.35,0-.32-.06-.18,0L12,32.12h-.24l-.18-1.33-.19,0-.32.06-.35,0h-.19c-.08,0-.13,0-.13-.06a.17.17,0,0,1,.08-.12l.28-.22c.24-.18.31-.28.65-.94a1.55,1.55,0,0,0,.2-.62c0-.39,0-.7.11-.7l0-.69,0-.26-.06,0-.16-.17-.19-.17-.07-.07a1,1,0,0,1,.15-.15l.16-.17.15-.17.13-.14" transform="translate(0 -0.96)"/><path class="cls-3" d="M8.41,30.36l.13.15.13.16a1.32,1.32,0,0,0,.17.17L9,31l-.1.08-.16.16-.17.15-.06.08v.17a3.74,3.74,0,0,0,1.23,3.21L9.9,35l-.15.1-.17,0-.35,0-.32,0-.18,0-.19,1.34H8.28L8.1,34.91l-.19,0-.32,0-.35,0-.17,0h0c-.07,0-.13,0-.13-.06s0-.07.1-.12l.28-.21a4.15,4.15,0,0,0,1-3v-.17l-.06-.08-.16-.15-.17-.16L7.82,31a3.09,3.09,0,0,0,.59-.63" transform="translate(0 -0.96)"/><path class="cls-3" d="M15.47,30.36a3.09,3.09,0,0,0,.59.63l-.09.08-.17.16-.16.15-.06.08v.17a5,5,0,0,0,.63,2.61l.37.43.21.17L17,35l-.15.1-.17,0-.35,0L16,35l-.18,0-.19,1.34h-.26l-.19-1.34L15,35l-.32,0-.35,0-.17,0h0C14,35.06,14,35,14,35a.18.18,0,0,1,.09-.12l.27-.21a4.22,4.22,0,0,0,1-3v-.17l-.06-.08-.16-.15L15,31.07,14.88,31a1.23,1.23,0,0,0,.16-.15.89.89,0,0,0,.17-.17l.13-.16.13-.15" transform="translate(0 -0.96)"/><path class="cls-3" d="M19,26.24a3.18,3.18,0,0,0,.43.48l.15.15-.08.07-.18.17-.15.17-.08,0,0,.26,0,.69a3.4,3.4,0,0,0,1.17,2.43c.1.05.16.1.16.12a.1.1,0,0,1-.08.1h-.23l-.37,0-.32-.06-.16,0-.19,1.33h-.26l-.19-1.33-.19,0-.31.05-.35,0h-.19c-.07,0-.13,0-.13-.06a.18.18,0,0,1,.09-.12l.27-.22c.24-.19.32-.31.65-.94a1.64,1.64,0,0,0,.2-.62c0-.39.05-.7.11-.7l0-.69,0-.26-.06,0-.17-.17-.16-.17-.1-.07.15-.15.17-.17.15-.17.13-.14" transform="translate(0 -0.96)"/><path class="cls-3" d="M39,26.2l.13.17.13.14.17.19.17.15-.09.07-.17.17-.17.15-.06.07v.16c0,1.5.5,2.81,1.23,3.2.11.07.16.12.16.17v0l-.15,0h-.17a3.46,3.46,0,0,1-.85-.15l-.19,1.34h-.26l-.18-1.34a3.54,3.54,0,0,1-.86.15h-.16c-.11,0-.16,0-.16-.07s.05-.1.16-.16c.71-.37,1.22-1.7,1.22-3.2v-.16l0-.07-.17-.15-.17-.17-.09-.07.17-.15.16-.19.13-.14L39,26.2" transform="translate(0 -0.96)"/><path class="cls-3" d="M46.12,26.2l.13.17.15.14.17.19.15.15-.1.07-.16.17-.17.15-.06.07v.16c0,1.48.51,2.81,1.23,3.2.11.07.16.12.16.17v0l-.15,0h-.17a3.38,3.38,0,0,1-.85-.15l-.19,1.34H46l-.18-1.34a3,3,0,0,1-.93.15c-.2,0-.25,0-.25-.07s0-.1.17-.16a1.8,1.8,0,0,0,.58-.59A2.6,2.6,0,0,0,45.84,29c0-.4.06-.73.13-.73l0-.69,0-.24L46,27.24a3.31,3.31,0,0,0-.42-.39l.16-.15.17-.19.15-.14.11-.17" transform="translate(0 -0.96)"/><path class="cls-3" d="M42.59,30.32l.13.15.15.17a1.69,1.69,0,0,0,.16.17,1.31,1.31,0,0,0,.16.14l-.1.08-.16.18-.17.15-.06.08,0,.24,0,.69a3.2,3.2,0,0,0,1.17,2.43c.11.06.16.11.16.16v0l-.15,0h-.17a3,3,0,0,1-.85-.15l-.19,1.34h-.26l-.18-1.34a3,3,0,0,1-.94.15c-.19,0-.23,0-.23-.08s0-.09.16-.14a1.76,1.76,0,0,0,.58-.6,2.9,2.9,0,0,0,.48-1.11c0-.4.05-.72.11-.72l0-.69,0-.24-.08-.08-.14-.15L42.09,31,42,31l.14-.14a2.75,2.75,0,0,0,.43-.49" transform="translate(0 -0.96)"/><path class="cls-3" d="M49.72,30.32l.14.15.14.17s.08.08.17.17l.15.14-.08.08-.18.18-.17.15,0,.08,0,.24,0,.69a3.27,3.27,0,0,0,1.17,2.43c.11.06.16.11.16.16v0l-.15,0h-.17a3,3,0,0,1-.85-.15l-.18,1.34h-.25l-.2-1.34a3,3,0,0,1-.93.15c-.19,0-.24,0-.24-.08s0-.09.17-.14a1.84,1.84,0,0,0,.57-.6,3,3,0,0,0,.49-1.11c0-.4.05-.72.11-.72l0-.69,0-.24-.07-.08-.15-.15L49.22,31,49.15,31l.15-.14a3.07,3.07,0,0,0,.42-.49" transform="translate(0 -0.96)"/><path class="cls-3" d="M53.25,26.2l.13.17.15.14.17.19.15.15-.09.07-.17.17-.17.15-.05.07v.16c0,1.48.51,2.81,1.22,3.2.11.07.16.12.16.17v0l-.15,0h-.17a3.46,3.46,0,0,1-.85-.15l-.19,1.34h-.26l-.18-1.34a3,3,0,0,1-.93.15c-.2,0-.24,0-.24-.07s0-.1.17-.16a1.79,1.79,0,0,0,.57-.59A2.53,2.53,0,0,0,53,29c0-.4.06-.73.13-.73l0-.69,0-.24a.45.45,0,0,1-.07-.07l-.15-.15-.19-.17-.07-.07.15-.15.16-.19.15-.14.11-.17" transform="translate(0 -0.96)"/><path class="cls-3" d="M25.76,45.39a2.81,2.81,0,0,0,.43.48l.15.15-.08.07-.18.17-.15.17-.08.07,0,.24,0,.69a4.12,4.12,0,0,0,.59,1.84,1.94,1.94,0,0,0,.58.6c.12.05.17.09.17.15s-.05.07-.26.07a2.94,2.94,0,0,1-.91-.15l-.19,1.34h-.26l-.18-1.34a3.46,3.46,0,0,1-.86.15h-.17c-.11,0-.15,0-.15-.07s.05-.1.15-.15a1.86,1.86,0,0,0,.58-.6,2.78,2.78,0,0,0,.48-1.11c0-.4.05-.73.11-.73l0-.69,0-.24-.06-.07-.16-.17-.17-.17L25.17,46l.15-.15.16-.17.15-.16.13-.15" transform="translate(0 -0.96)"/><path class="cls-3" d="M32.39,45.39a2.81,2.81,0,0,0,.43.48L33,46l-.08.07-.18.17-.15.17-.07.07v.24l0,.69a4,4,0,0,0,.6,1.84,1.94,1.94,0,0,0,.57.6c.13.05.17.09.17.15s0,.07-.26.07a2.94,2.94,0,0,1-.91-.15l-.19,1.34h-.26l-.18-1.34a3.46,3.46,0,0,1-.86.15h-.16c-.11,0-.16,0-.16-.07s.05-.1.16-.15a1.94,1.94,0,0,0,.57-.6,2.78,2.78,0,0,0,.48-1.11c0-.4,0-.73.12-.73l0-.69,0-.24-.05-.07-.17-.17-.17-.17L31.8,46l.15-.15.16-.17.15-.16.13-.15" transform="translate(0 -0.96)"/><path class="cls-3" d="M29,51.41l.09.19.17.12.17.19.15.15-.08.07-.18.17-.15.15-.07.07v.24l0,.69a3.24,3.24,0,0,0,1.17,2.43c.13.06.17.1.17.15l0,0-.13,0h-.17l-.37,0L29.49,56l-.16,0-.21,1.33h-.24L28.7,56l-.19,0-.32.06-.35,0h-.18c-.09,0-.14,0-.14-.09s0-.1.15-.16a1.64,1.64,0,0,0,.58-.59,2.74,2.74,0,0,0,.48-1.12c0-.4.05-.72.11-.72l0-.69,0-.24-.06-.07-.16-.15-.17-.17-.09-.07.15-.15.16-.19.15-.15.13-.16" transform="translate(0 -0.96)"/><path class="cls-3" d="M25.72,57.54l.13.16.15.15.17.19.12.17-.06,0-.17.17-.17.15-.05.07v.24l0,.69A3.22,3.22,0,0,0,27.06,62c.11.06.16.11.16.17v0l-.15,0h-.17a5.25,5.25,0,0,1-.85-.13l-.19,1.32h-.26l-.18-1.32a4.24,4.24,0,0,1-.93.13c-.19,0-.24,0-.24-.09s.05-.09.17-.14a1.9,1.9,0,0,0,.57-.59,2.93,2.93,0,0,0,.48-1.12c0-.4.05-.72.12-.72l0-.69,0-.24-.07-.07a.93.93,0,0,0-.15-.15l-.19-.17-.07-.07L25.3,58l.16-.19.15-.15.11-.16" transform="translate(0 -0.96)"/><path class="cls-3" d="M32.39,57.54l.11.16.15.15.14.22.18.12-.08.07-.18.17a.93.93,0,0,0-.15.15l-.07.07v.24l0,.69a4,4,0,0,0,.6,1.84,1.77,1.77,0,0,0,.57.59c.13.06.17.1.17.15s0,.08-.25.08a4.17,4.17,0,0,1-.92-.13l-.19,1.32h-.26l-.18-1.32a5.16,5.16,0,0,1-.86.13h-.16c-.11,0-.16,0-.16-.07s.05-.1.16-.16a1.8,1.8,0,0,0,.57-.59,2.74,2.74,0,0,0,.48-1.12c0-.4,0-.72.12-.72l0-.69,0-.24-.05-.07-.17-.15-.17-.17-.09-.07L32,58l.16-.19.15-.15.13-.16" transform="translate(0 -0.96)"/><path class="cls-3" d="M29,39.33l.11.17.15.15.17.18.15.15-.08.08-.18.16-.15.15-.07.08v.24l0,.69a3.25,3.25,0,0,0,1.17,2.43c.12,0,.16.09.16.14s0,.08-.23.08a4.24,4.24,0,0,1-.93-.13l-.21,1.34h-.24L28.7,43.9a5.16,5.16,0,0,1-.86.13h-.17q-.15,0-.15-.06c0-.06.05-.1.15-.16a1.67,1.67,0,0,0,.58-.6,2.67,2.67,0,0,0,.48-1.11c0-.4.05-.72.11-.72l0-.69,0-.24-.06-.08-.16-.15-.17-.16L28.42,40l.15-.15.16-.18.15-.15.13-.17" transform="translate(0 -0.96)"/><path class="cls-3" d="M25.67,5.43l.13.15.15.17.16.16.15.15-.07.08L26,6.3l-.16.17-.06.06,0,.26,0,.66a3.86,3.86,0,0,0,.59,1.86l.37.43.21.17.15.12-.15.1-.17,0-.35,0L26.17,10,26,10l-.2,1.28-.22.06L25.37,10l-.18,0-.32.05-.35,0-.2,0c-.07,0-.12,0-.12-.06a.19.19,0,0,1,.08-.12l.27-.21c.24-.18.31-.28.65-1a1.45,1.45,0,0,0,.21-.61c0-.4.05-.73.11-.73l0-.66,0-.26-.08-.06-.15-.17-.18-.16-.08-.08a2.06,2.06,0,0,0,.15-.15,2.81,2.81,0,0,0,.43-.48" transform="translate(0 -0.96)"/><path class="cls-3" d="M32.39,5.43a2.81,2.81,0,0,0,.43.48l.15.15-.08.08-.18.16-.15.17-.07.06v.26l0,.66a3.41,3.41,0,0,0,1.17,2.46c.1.05.16.1.16.12a.08.08,0,0,1-.07.09h-.24l-.37,0a1.5,1.5,0,0,1-.31-.05l-.17,0-.19,1.34h-.26L32.08,10l-.21,0-.29.11-.36,0-.16,0h0c-.07,0-.12,0-.12-.06s0-.07.08-.12l.27-.21c.25-.2.33-.31.65-1a1.56,1.56,0,0,0,.2-.61c0-.4.06-.73.12-.73l0-.66,0-.26-.05-.06-.17-.17-.17-.16s0,0-.09-.08A2.09,2.09,0,0,1,32,5.91l.16-.16.15-.17a1.16,1.16,0,0,0,.13-.15" transform="translate(0 -0.96)"/><path class="cls-3" d="M29,11.24l.14.15.14.17.17.18a1,1,0,0,0,.15.15l-.09.08-.17.17-.17.14-.05.08,0,.24v.63a3.4,3.4,0,0,0,1.19,2.49c.11.06.16.11.16.16v0l-.15,0h-.16a3.42,3.42,0,0,1-.86-.14l-.18,1.33h-.27l-.18-1.33a3,3,0,0,1-.93.15c-.2,0-.24,0-.24-.08s0-.09.17-.15a1.79,1.79,0,0,0,.57-.59A2.55,2.55,0,0,0,28.7,14c0-.4.06-.72.13-.72l0-.69,0-.24-.07-.08-.15-.14L28.47,12l-.07-.08.15-.15.17-.18.14-.17a.73.73,0,0,0,.11-.15" transform="translate(0 -0.96)"/><path class="cls-3" d="M25.65,17l.13.15.13.17a1.42,1.42,0,0,0,.17.16l.16.15-.09.08-.17.16-.16.17-.06.06v.17a5,5,0,0,0,.61,2.56l.41.48.21.17.15.12-.15.1-.17,0-.35,0-.32-.05-.18,0-.19,1.34h-.26l-.19-1.34-.18,0-.32.05-.35,0-.17,0h0c-.07,0-.13,0-.13-.06s0-.07.09-.12l.27-.21a4.06,4.06,0,0,0,1-3v-.17l-.06-.06-.16-.17-.17-.16-.09-.08a1.23,1.23,0,0,0,.16-.15,1.42,1.42,0,0,0,.17-.16l.13-.17.13-.15" transform="translate(0 -0.96)"/><path class="cls-3" d="M32.36,17a1.16,1.16,0,0,0,.13.15l.14.17.17.16.15.15-.09.08-.17.16-.17.17-.05.06,0,.26,0,.68a3.29,3.29,0,0,0,1.17,2.44l.15.12-.15.1-.16,0-.36,0-.31-.05-.19,0-.18,1.34h-.26L32,21.54c-.34.07-.35.13-.46.14l-.37,0-.17,0h0c-.07,0-.11,0-.11-.06a.15.15,0,0,1,.07-.12l.28-.21c.24-.19.31-.29.65-1a1.45,1.45,0,0,0,.21-.61c0-.39,0-.71.11-.71l0-.68,0-.26-.07-.06L32,17.91l-.19-.16-.07-.08.15-.15a2.81,2.81,0,0,0,.43-.48" transform="translate(0 -0.96)"/><path class="cls-3" d="M18.44,14.05l.08.28c.06.25.11.45.14.59.24,1.06.44,1.34.95,1.34a.62.62,0,0,0,.62-.41l.11-.37a.17.17,0,0,1,.18-.14c.2,0,.29.21.3.68a8.33,8.33,0,0,0,.13.91,4.59,4.59,0,0,1,.07.81,1.2,1.2,0,0,1-.11.58A7.26,7.26,0,0,1,21,19.46a2.3,2.3,0,0,1-.23,1.11,2.27,2.27,0,0,1,.1.7,3.34,3.34,0,0,1-.06.62,4.88,4.88,0,0,0-.1.64,1,1,0,0,0,0,.25.81.81,0,0,1,.06.22c0,.05,0,.1-.06.1L20.41,23,20,22.72a1.81,1.81,0,0,1-.42-.33c-.37.33-.47.37-1.42.63a1.28,1.28,0,0,0-.4.17.72.72,0,0,1-.25.13c-.16,0-.24-.26-.24-.79a4.33,4.33,0,0,1,.11-1,2,2,0,0,0-.66-.17l-.28,0h-.07c-.06,0-.1-.08-.1-.17a1.48,1.48,0,0,1,.11-.41l.19-.44a1.45,1.45,0,0,1,.44-.54,1.24,1.24,0,0,1,.48-.28l.67-.13c.4-.08.64-.29.64-.56s-.18-.45-.58-.59l-.8-.28a3.89,3.89,0,0,1-.72-.35c-.45-.27-.52-.3-.63-.3s-.25.12-.25.33a.52.52,0,0,0,.52.56.43.43,0,0,0,.19,0,.76.76,0,0,1,.19-.05.12.12,0,0,1,.13.14v.08l0,.32a2.58,2.58,0,0,1-.6,1.11l-.16.22a2.59,2.59,0,0,1-1,1.47,1,1,0,0,0-.2.15,1.44,1.44,0,0,0-.15.26,3.48,3.48,0,0,1-.37.45,3,3,0,0,1-.47.42,1.87,1.87,0,0,0-.37.34l-.18.31a.19.19,0,0,1-.15.1c-.17,0-.32-.17-.41-.47s-.13-.28-.27-.28a1.45,1.45,0,0,0-.33.06l-.25,0h-.67a3.06,3.06,0,0,0-1,.18.49.49,0,0,1-.19.06s-.07,0-.12-.11a.28.28,0,0,1,0-.15,3.51,3.51,0,0,1,.56-1.49,1.86,1.86,0,0,1,.5-.59.84.84,0,0,0-.52-.63l-.32-.1a.1.1,0,0,1-.07-.09c0-.09.15-.23.43-.37a2.3,2.3,0,0,1,1-.3,1.53,1.53,0,0,1,1,.39c.5.4.64.47.88.47a.81.81,0,0,0,.78-.75,1.77,1.77,0,0,0-.49-1,2.3,2.3,0,0,1-.68-1.51,1.92,1.92,0,0,1,.21-.87l.19-.28a.32.32,0,0,0,.06-.18c0-.12-.14-.21-.34-.21a3.22,3.22,0,0,0-1.3.48c-.22.14-.38.3-.38.4a.16.16,0,0,0,.08.14l.21.13a.12.12,0,0,1,0,.08.31.31,0,0,1-.08.15l-.37.48a6.51,6.51,0,0,1-.78.82,1.14,1.14,0,0,0-.19.18l-.15.28a2.89,2.89,0,0,1-.81.84,1.22,1.22,0,0,0-.26.2,1.36,1.36,0,0,0-.15.26l-.24.39a6.07,6.07,0,0,1-.45.58l-.52.52a3.07,3.07,0,0,0-.52,1.15c-.13.41-.25.65-.32.65s-.08,0-.15-.11c-.36-.42-.68-.67-.85-.67a.5.5,0,0,0-.2.09,1.46,1.46,0,0,1-.51.19l-.68.13a1.5,1.5,0,0,0-1,.55c-.07.09-.12.14-.16.14s-.1-.1-.1-.22l0-.18.1-.5a4.17,4.17,0,0,1,.37-1.2l.31-.58a.59.59,0,0,0,.1-.3,1,1,0,0,0-1-.87c-.13,0-.19-.05-.19-.12s.15-.28.36-.44a2.28,2.28,0,0,1,1.17-.48,2.66,2.66,0,0,1,.84.22l.4.17A1.22,1.22,0,0,0,6,19c.43,0,.85-.39,1.37-1.28a2,2,0,0,0,.33-1c0-.47-.22-.76-.59-.76a1.21,1.21,0,0,0-.8.35.85.85,0,0,0-.29.58v.25c0,.17-.06.27-.16.27s-.43-.25-1.16-1.13a2.23,2.23,0,0,1-.69-1.6c-.63-.81-.78-1.15-.78-1.72l0-.38a1.79,1.79,0,0,1-.56-1.29.9.9,0,0,1,.14-.49,1.81,1.81,0,0,1-.36-.73L2.43,9.7A2,2,0,0,0,2.13,9C2,8.77,2,8.74,2,8.66s.14-.3.8-.46a2.61,2.61,0,0,1,0-.41,2.48,2.48,0,0,1,0-.45l.13-.68A3.06,3.06,0,0,0,3,6.06a2,2,0,0,0-.13-.59A1.85,1.85,0,0,0,2.67,5a.7.7,0,0,1-.11-.25c0-.07,0-.11.13-.11a3.18,3.18,0,0,1,1.17.71A2.92,2.92,0,0,1,5.29,7.7c0,.08,0,.2.06.37a1.66,1.66,0,0,1,.78,1.31,2.26,2.26,0,0,1-.38,1.2l-.37.57a1.12,1.12,0,0,0-.16.62,2.15,2.15,0,0,0,.35,1.11c.28.5.53.71.83.71.49,0,.92-.86.92-1.83V11.3a4.55,4.55,0,0,1,0-.61q.06-.43.06-.54l0-.45V9.41a.53.53,0,0,0-.19-.36l-.41-.44A2.9,2.9,0,0,1,5.92,6.9a1,1,0,0,1,1-1A1.26,1.26,0,0,1,7.26,6V5.86c0-.82.17-1.42.39-1.42l.09,0,.34.3.4.26.12.11c0-.23,0-.25.24-.52l.26-.35L9.28,4l.1-.17c0-.09.1-.14.15-.14s.09.07.16.27.08.17.39.45a1.57,1.57,0,0,1,.23.24,2.26,2.26,0,0,1,.14.37s0,.08.06.15a1.26,1.26,0,0,1,.37-.33l.28-.17a.69.69,0,0,1,.21-.1s.06,0,.09.12.08.16.15.28a1.47,1.47,0,0,1,.26.67V6a1,1,0,0,1,.83,1.17A2.58,2.58,0,0,1,12,8.77c-.32.38-.36.46-.36.72,0,1.38,1,2.17,2.64,2.2l1.25,0a6,6,0,0,1,2,.33,4.87,4.87,0,0,0,1.4.36.43.43,0,0,0,.24-.08.22.22,0,0,0,.11-.16c0-.26-.46-.47-2-.9C14.26,10.39,13,9.16,13,7.13a2.85,2.85,0,0,1,3-2.78,6.31,6.31,0,0,1,1.86.32l.76.28A1.21,1.21,0,0,0,19,5c.26,0,.39-.21.4-.65,0-.23.06-.32.21-.32s.55.27.85.69A2.37,2.37,0,0,1,20.93,6a1.05,1.05,0,0,1-.65,1,1.81,1.81,0,0,1-1.62.93,6,6,0,0,1-2.56-1,1.8,1.8,0,0,0-.89-.33.49.49,0,0,0-.55.48c0,.27.21.44.75.63a2.57,2.57,0,0,1,1.32.73,3.62,3.62,0,0,1,1.95.78c1.63.51,2.65,1.62,2.65,2.9a2,2,0,0,1-2,2.13,3.65,3.65,0,0,1-.88-.11" transform="translate(0 -0.96)"/><path class="cls-3" d="M53.11,14.05l.07.28c.07.25.12.45.15.59.23,1.06.43,1.34,1,1.34a.61.61,0,0,0,.61-.41l.11-.37a.18.18,0,0,1,.18-.14c.2,0,.31.23.32.68,0,.17,0,.47.11.91a5.5,5.5,0,0,1,.08.86,1.4,1.4,0,0,1-.11.53l0,.22a3.23,3.23,0,0,1,.08.69,2.22,2.22,0,0,1-.23,1.34,2.26,2.26,0,0,1,.1.67,5.64,5.64,0,0,1-.06.65l-.07.56,0,.33a.9.9,0,0,1,.07.22c0,.05,0,.1-.07.1L55.07,23l-.4-.23a1.63,1.63,0,0,1-.43-.33,1.44,1.44,0,0,1-.84.46,3.43,3.43,0,0,0-1,.34.66.66,0,0,1-.26.13c-.14,0-.24-.28-.24-.69a2.94,2.94,0,0,1,.13-1.13,2.61,2.61,0,0,0-.68-.17,1.1,1.1,0,0,0-.27,0H51c-.05,0-.08-.07-.08-.18a2.23,2.23,0,0,1,.3-.85,1.63,1.63,0,0,1,.91-.82l.67-.13c.39-.08.63-.29.63-.56s-.17-.45-.58-.59L52.1,18a3.86,3.86,0,0,1-.74-.35L51,17.37a.53.53,0,0,0-.2-.05c-.17,0-.27.12-.27.32a.56.56,0,0,0,.54.57.41.41,0,0,0,.19,0l.17-.05c.09,0,.15.08.15.2a2.32,2.32,0,0,1-.43,1.17l-.22.28-.17.22a2.47,2.47,0,0,1-1,1.47.79.79,0,0,0-.21.15l-.15.26a2.75,2.75,0,0,1-.37.45,3.44,3.44,0,0,1-.46.42,1.4,1.4,0,0,0-.37.34l-.19.31a.17.17,0,0,1-.15.1c-.16,0-.31-.17-.41-.47s-.12-.28-.27-.28a1.3,1.3,0,0,0-.32.06l-.26,0H45.9a3.08,3.08,0,0,0-1,.18.55.55,0,0,1-.19.06c-.1,0-.15-.1-.15-.28a3.39,3.39,0,0,1,1-2.06.75.75,0,0,0-.5-.63l-.33-.1a.1.1,0,0,1-.06-.09c0-.12.13-.23.43-.37a2,2,0,0,1,1-.3,1.53,1.53,0,0,1,1,.39c.5.39.64.47.88.47a.81.81,0,0,0,.78-.75,1.71,1.71,0,0,0-.49-1,2.43,2.43,0,0,1-.67-1.58,1.78,1.78,0,0,1,.39-1.08.43.43,0,0,0,.08-.2c0-.1-.17-.19-.36-.19a2,2,0,0,0-.78.22c-.56.26-.89.5-.89.65a.22.22,0,0,0,.09.15l.19.13a.12.12,0,0,1,0,.08.28.28,0,0,1-.08.15l-.37.48a4.75,4.75,0,0,1-.78.82.84.84,0,0,0-.19.18l-.14.28a3.28,3.28,0,0,1-.8.84,1.7,1.7,0,0,0-.26.2,1.27,1.27,0,0,0-.17.26,5.65,5.65,0,0,1-.69,1l-.5.52a4.11,4.11,0,0,0-.54,1.15c-.15.45-.25.65-.32.65s-.08,0-.14-.11c-.36-.41-.69-.67-.84-.67a.55.55,0,0,0-.22.09,1.49,1.49,0,0,1-.5.19l-.67.13a1.46,1.46,0,0,0-1,.55c-.07.09-.12.14-.15.14s-.11-.1-.11-.23l0-.17s0-.18.09-.5a4.28,4.28,0,0,1,.37-1.2l.34-.58a.64.64,0,0,0,.09-.3c0-.43-.4-.78-1-.87-.13,0-.19-.07-.19-.14s.14-.25.37-.42A2.13,2.13,0,0,1,39,18.49a2.45,2.45,0,0,1,.85.22l.41.17a1.13,1.13,0,0,0,.41.09c.43,0,.85-.39,1.37-1.28a1.88,1.88,0,0,0,.34-1c0-.47-.22-.75-.59-.75a1.1,1.1,0,0,0-.79.35.92.92,0,0,0-.31.6v.28c0,.15-.05.22-.16.22s-.3-.14-.63-.52l-.52-.61a2.12,2.12,0,0,1-.7-1.6A2.72,2.72,0,0,1,37.94,13l0-.38a1.6,1.6,0,0,1-.54-1.29.79.79,0,0,1,.11-.49,1.91,1.91,0,0,1-.35-.73l-.1-.39A2.14,2.14,0,0,0,36.8,9c-.17-.23-.19-.27-.19-.34s.18-.32.65-.43l.15,0a2.61,2.61,0,0,1,0-.41,2,2,0,0,1,.06-.45l.13-.68a3.62,3.62,0,0,0,.07-.61,1.76,1.76,0,0,0-.11-.58A1.47,1.47,0,0,0,37.33,5a.51.51,0,0,1-.11-.25c0-.06.07-.11.15-.11a.67.67,0,0,1,.19.06,7.46,7.46,0,0,1,1.8,1.43A2.78,2.78,0,0,1,40,8.07a1.58,1.58,0,0,1,.78,1.41,2,2,0,0,1-.37,1.1c-.23.34-.35.54-.37.57a1.24,1.24,0,0,0-.17.63,2.18,2.18,0,0,0,.35,1.1c.28.49.53.71.82.71.49,0,.93-.85.93-1.77v-.69l.05-.44,0-.54,0-.45V9.45c0-.18,0-.23-.61-.84a2.78,2.78,0,0,1-.93-1.78.94.94,0,0,1,1-.92,1.21,1.21,0,0,1,.39.08V5.76l0-.39.11-.48c.09-.38.13-.45.27-.45l.09,0,.33.3.41.26.11.11a.79.79,0,0,1,.24-.52,3.49,3.49,0,0,0,.26-.35L44,4l.11-.17c.07-.11.11-.14.15-.14s.09.07.15.27a.53.53,0,0,0,.16.25l.25.2a1.38,1.38,0,0,1,.4.76,1.1,1.1,0,0,1,.37-.33l.3-.17a.79.79,0,0,1,.2-.09s.05,0,.08.11a1.91,1.91,0,0,0,.15.28c.24.38.26.44.26.7V6a1,1,0,0,1,.84,1.16,2.51,2.51,0,0,1-.71,1.59c-.32.39-.37.5-.37.79,0,1.31,1,2.1,2.65,2.13l1.23,0a6,6,0,0,1,2,.33,4.72,4.72,0,0,0,1.4.36c.19,0,.34-.11.34-.24s-.45-.47-1.95-.9c-3.06-.86-4.36-2.1-4.36-4.13a2.85,2.85,0,0,1,3-2.78,6.23,6.23,0,0,1,1.84.32l.77.28a1.11,1.11,0,0,0,.39.07c.27,0,.37-.16.4-.65,0-.22.09-.32.23-.32s.58.31.85.69A2.51,2.51,0,0,1,55.6,6a1.06,1.06,0,0,1-.66.94,1.79,1.79,0,0,1-1.61.93,6.25,6.25,0,0,1-2.56-1,1.7,1.7,0,0,0-.89-.33.48.48,0,0,0-.55.48c0,.27.2.44.75.63.88.31,1.07.42,1.32.73a3.66,3.66,0,0,1,2,.78C55,9.67,56,10.72,56,12.06a2,2,0,0,1-2,2.1,3.64,3.64,0,0,1-.9-.11" transform="translate(0 -0.96)"/><path class="cls-3" d="M18.8,49.12A3.12,3.12,0,0,1,19,50l0,.79q0,1.17.78,1.17a.59.59,0,0,0,.41-.13l.21-.21.08,0c.13,0,.2.08.2.24l0,.3a4.18,4.18,0,0,0,.07.86,4.71,4.71,0,0,1,.06.74,2,2,0,0,1-.17.91,3.49,3.49,0,0,1,.2,1.12,1.46,1.46,0,0,1-.22.9,2.65,2.65,0,0,1,.09.63,4.2,4.2,0,0,1-.07.71,3.47,3.47,0,0,0-.07.89v0c0,.12,0,.18-.11.18a.36.36,0,0,1-.23-.15c-.11-.15-.19-.2-.27-.2s-.17.07-.36.62a2.31,2.31,0,0,1-.45.69,1.61,1.61,0,0,0-.33.54l-.11.39a.14.14,0,0,1-.11.09h0c-.3,0-.65-.66-1-1.9-.1-.35-.23-.51-.42-.51a.37.37,0,0,0-.33.21l-.11.26a.11.11,0,0,1-.1.08c-.14,0-.37-.27-.51-.62a2.24,2.24,0,0,1-.18-.85c0-.58.43-1,1.72-1.75a1.44,1.44,0,0,0,.78-1.45,1.41,1.41,0,0,0-.67-1.28,1.53,1.53,0,0,0-.83-.41.29.29,0,0,0-.31.27c0,.17.1.28.34.36s.41.21.41.34a1.85,1.85,0,0,1-.31.67,1.75,1.75,0,0,1-.6.61,1.71,1.71,0,0,1-.89,1.21,2.09,2.09,0,0,1-.37.69l-.39.5a1.67,1.67,0,0,0-.28.57c0,.29-.07.34-.18.34s-.45-.26-.75-.65a.91.91,0,0,1-.24-.62c-.19.16-.25.18-.63.23a1.41,1.41,0,0,0-.5.13,1.48,1.48,0,0,1-.43.19c-.08,0-.11,0-.11-.17l0-.41a2.88,2.88,0,0,1,.56-1.66,1.88,1.88,0,0,0-.91-.48c-.11,0-.14,0-.14-.07a.8.8,0,0,1,.17-.34,2.66,2.66,0,0,1,.34-.37,1.86,1.86,0,0,1,1.07-.39,3.38,3.38,0,0,1,1.06.26,1.38,1.38,0,0,0,.45.09c.2,0,.32-.13.32-.36a5.12,5.12,0,0,0-.54-1.72,3.28,3.28,0,0,1-.37-1.22,1.79,1.79,0,0,1,.68-1.51.77.77,0,0,0-.41-.11,1,1,0,0,0-.57.19c-.28.16-.43.3-.43.39s.06.1.15.16.17.14.17.28a2.14,2.14,0,0,1-.91,1.47,1.65,1.65,0,0,1-1,1.32,1.66,1.66,0,0,1-.41.85,3.36,3.36,0,0,0-.68,1.28c0,.2-.09.29-.16.29a1,1,0,0,1-.42-.32l-.3-.36a1.65,1.65,0,0,1-.2-.59.73.73,0,0,1-.26.05H8.49a2.35,2.35,0,0,0-1.06.23.42.42,0,0,1-.16.07c-.13,0-.22-.25-.22-.56a2.93,2.93,0,0,1,.62-1.83,2.24,2.24,0,0,1-.35-.34l-.15-.13L7,51.59c-.07,0-.11-.08-.11-.12s.27-.36.6-.56a1.58,1.58,0,0,1,.89-.34c.31,0,.47.08.85.41a1,1,0,0,0,.57.33.37.37,0,0,0,.27-.16.51.51,0,0,0,.09-.28,2,2,0,0,0-.89-1.27,2,2,0,0,0-1.11-.35A1.26,1.26,0,0,0,7,49.92l-.2.43q-.07.15-.18.15c-.12,0-.18,0-.6-.54l-.49-.56a1.7,1.7,0,0,1-.29-.48,1.07,1.07,0,0,0-.1-.24s-.08-.08-.18-.15A2.49,2.49,0,0,1,4.12,47c0-.06,0-.14-.06-.25a3.05,3.05,0,0,1-.72-1.84.74.74,0,0,1,0-.26c-.27-.26-.3-.33-.5-1a2.71,2.71,0,0,0-.43-1,.36.36,0,0,1-.08-.15c0-.1.16-.18.43-.22a2.28,2.28,0,0,1,.37-.05l.37,0,0-.51a3.37,3.37,0,0,1,.1-.85,1.77,1.77,0,0,0,0-.39s0-.13,0-.31a1.22,1.22,0,0,0-.06-.28.45.45,0,0,1,0-.16c0-.06,0-.09.11-.09a.57.57,0,0,1,.25.08,5.11,5.11,0,0,1,.8.48A2.85,2.85,0,0,1,5.84,42v.15c0,.17,0,.26,0,.27a.58.58,0,0,0,.13.3l.21.28a1.45,1.45,0,0,1,.3.73c0,.18,0,.25-.34.68a1.48,1.48,0,0,0-.32.84,2.63,2.63,0,0,0,.37,1.17c.22.39.48.6.72.6.42,0,.59-.37.66-1.36a13.58,13.58,0,0,1,.15-1.41l0-.26c0-.11,0-.18-.19-.36L6.94,43c-.53-.62-.69-.94-.69-1.38a.81.81,0,0,1,.82-.87l.23,0v-.14a2.07,2.07,0,0,1,.1-.5c.12-.4.26-.71.34-.71a.54.54,0,0,1,.18.09,1.73,1.73,0,0,0,.33.13,2.59,2.59,0,0,1,.38.19,1.51,1.51,0,0,1,.29-.65c.24-.31.51-.56.61-.56s.17.08.3.22l.36.37a2.45,2.45,0,0,1,.2.36l.07.16.23-.13.29-.16.36-.17a.57.57,0,0,1,.19-.1c.06,0,.1.12.23.73a4.52,4.52,0,0,1,.14.82.92.92,0,0,1,.87,1.06,2.81,2.81,0,0,1-.93,1.87.58.58,0,0,0-.21.45c0,1.64.57,2.16,2.62,2.38a12.82,12.82,0,0,1,3.16.67,6.24,6.24,0,0,0,1.56.34c.35,0,.54-.13.54-.36s-.25-.45-1.73-.76c-3.44-.73-4.79-1.9-4.79-4.17a2.77,2.77,0,0,1,2.83-2.84,4.51,4.51,0,0,1,2.35.8c.94.54,1.13.63,1.35.63s.34-.16.34-.56.08-.39.25-.39a1,1,0,0,1,.57.4,1.33,1.33,0,0,1,.43,1.05A1.28,1.28,0,0,1,20,42.55l-.17.18a1.52,1.52,0,0,1-1.32.58,3.12,3.12,0,0,1-1.65-.54L16,42.14a1.62,1.62,0,0,0-.94-.39.55.55,0,0,0-.6.61.84.84,0,0,0,.65.8l.83.26a4.12,4.12,0,0,1,.8.33,2.71,2.71,0,0,1,.42,0,3.42,3.42,0,0,1,1.57.4l.33.15.47.12A2.86,2.86,0,0,1,21.45,47a2,2,0,0,1-2.22,2.13l-.43,0" transform="translate(0 -0.96)"/><path class="cls-3" d="M51.12,48.84a1.61,1.61,0,0,0,1.15.71,2.13,2.13,0,0,0,.5-.08l.25,0c.09,0,.13,0,.13.11a1.27,1.27,0,0,1-.1.35,1.31,1.31,0,0,0-.11.34l-.08.39-.18.33-.26.24-.08.08v.25a1,1,0,0,1-.5.95l-.13.1,0,.15a6.36,6.36,0,0,1-.19.65c-.05.09-.17.27-.35.52a3.35,3.35,0,0,0-.47.76c-.07.18-.13.24-.25.24s-.37-.23-.4-.5l-.09.11-.22.15-.36.24-.29.22-.21.21a.16.16,0,0,1-.11.05c-.09,0-.19-.16-.28-.46l-.18-.62a2,2,0,0,1-.08-.59,1.32,1.32,0,0,1,.13-.67,2.44,2.44,0,0,0-.67.13l-.16,0c-.06,0-.1,0-.1-.12a1.2,1.2,0,0,1,.08-.27l.24-.63A1.57,1.57,0,0,1,49,51.25a2,2,0,0,1,.48.1.94.94,0,0,0,.28.06.37.37,0,0,0,.38-.36.28.28,0,0,0-.15-.24l-.66-.2A1.49,1.49,0,0,1,48.5,50c-.26-.29-.36-.37-.45-.37s-.11,0-.11.13L48,50v.12a3.47,3.47,0,0,1-.53,1.69l-.52.94a2.3,2.3,0,0,0-.35,1.14c0,.37.16.7.37.76l.28.07a.24.24,0,0,1,.09.06.17.17,0,0,1,.06.11.35.35,0,0,1-.1.17l-.33.42a1.59,1.59,0,0,1-.91.69,1.81,1.81,0,0,1-1.25,1.08l-.07.13a1.49,1.49,0,0,1-1,.74h-.07a1.42,1.42,0,0,1-.65,1,3.66,3.66,0,0,0-.42.32.49.49,0,0,0-.1.16c-.08.19-.16.26-.26.26s-.36-.18-.48-.54l-.17.12-.35.24a4.12,4.12,0,0,1-.65.18,1.72,1.72,0,0,0-1,.47l-.17.28-.07,0c-.09,0-.2-.13-.24-.29a4.8,4.8,0,0,1-.17-1,2.27,2.27,0,0,1,.89-1.76v-.16a1.75,1.75,0,0,1,1.94-1.72h.18l.63,0h.06a1.54,1.54,0,0,0,1-.41c.46-.37.59-.6.59-1a3,3,0,0,0-.18-.75,2.61,2.61,0,0,1,1.19-3.12c.2-.14.34-.32.34-.42s0-.08,0-.08a.46.46,0,0,0-.23.14,1.68,1.68,0,0,1-.45.28l-.3.15-.33.13c-.1,0-.16.1-.16.17a.51.51,0,0,0,.05.17.45.45,0,0,1,0,.13.55.55,0,0,1-.09.22l-.26.43a1.58,1.58,0,0,1-.76.74c-.21.61-.51.92-1,1-.35.71-.66,1-1.28,1a2.26,2.26,0,0,1-.56.85,2.92,2.92,0,0,0-.24.3c-.14.26-.16.28-.22.28a.93.93,0,0,1-.43-.28,1.24,1.24,0,0,1-.17-.23L39,55.05c-.06-.1-.11-.14-.18-.14h-.12l-.41,0a1.31,1.31,0,0,0-.74.43l-.23.34a.11.11,0,0,1-.09,0c-.16,0-.26-.37-.26-1a2,2,0,0,1,.26-1.15l.52-.72a.53.53,0,0,0,.11-.28.36.36,0,0,0-.09-.24.58.58,0,0,0-.3-.22l-.39-.06c-.07,0-.1,0-.1-.06a.28.28,0,0,1,.07-.13,1.65,1.65,0,0,1,.46-.41,2,2,0,0,1,1.07-.39,1.83,1.83,0,0,1,1,.32l.54.35a.5.5,0,0,0,.26.08c.25,0,.44-.15.62-.49a1.76,1.76,0,0,0,.24-.86A1.16,1.16,0,0,0,40,49.36a1.64,1.64,0,0,0-1,.37.63.63,0,0,0-.18.21l-.15.33c0,.08-.09.13-.14.13s-.3-.27-.48-.61a5.25,5.25,0,0,1-.26-.67,3,3,0,0,1-.15-.93l0-.5a1.87,1.87,0,0,1-.33-1.15,1.93,1.93,0,0,1,.13-.65,1.35,1.35,0,0,1-.2-.83v-.23l.06-.26,0-.22c-.18-.24-.23-.39-.41-1.21a2.51,2.51,0,0,0-.24-.78.24.24,0,0,1-.06-.11c0-.11.26-.21.56-.21l.26,0a.8.8,0,0,1-.08-.37,2.51,2.51,0,0,1,.13-.74,1.39,1.39,0,0,0,.12-.46,1.66,1.66,0,0,0-.08-.56l-.15-.38a.54.54,0,0,1,0-.19s0,0,.09,0a3.23,3.23,0,0,1,1.61.91,2,2,0,0,1,.72,1.7l0,.4a1.66,1.66,0,0,1,.73,1.21,1,1,0,0,1-.37.76,1.62,1.62,0,0,0-.62,1.4c0,1,.3,1.52.84,1.52s.85-.52.91-1.28l.06-.71a5.21,5.21,0,0,1,.09-.67,3.55,3.55,0,0,0,0-.48c0-.25-.16-.57-.65-1.14a2,2,0,0,1-.69-1.41.93.93,0,0,1,.93-1,.68.68,0,0,1,.36.1,1.79,1.79,0,0,1,.2-.83c.15-.36.3-.62.37-.62s.07,0,.12.08a1.41,1.41,0,0,0,.24.2l.18.13a1.32,1.32,0,0,1,.17.17,1.78,1.78,0,0,1,.58-.95c.26-.25.35-.33.4-.33a.17.17,0,0,1,.13.09l.23.3.31.35a1,1,0,0,1,.23.58l.18-.12.3-.16.22-.15a.22.22,0,0,1,.12-.06s.07.06.09.13l.11.43.24.48a1,1,0,0,1,.09.48V41h.13c.36,0,.68.44.68.94a2.71,2.71,0,0,1-1.22,2,1.52,1.52,0,0,0-.07.49c0,1.48.38,1.79,2.66,2.12a15.43,15.43,0,0,1,1.52.32l1.47.48a3.67,3.67,0,0,0,1.1.25c.27,0,.43-.08.43-.23s-.38-.48-1.51-.93l-1.62-.63c-1.64-.64-2.42-1.64-2.42-3.12a2.94,2.94,0,0,1,3-3,6.09,6.09,0,0,1,2.2.47,5.65,5.65,0,0,0,1.36.44c.22,0,.35-.15.38-.48s.11-.39.26-.39.48.21.65.56a2.1,2.1,0,0,1,.24,1,1.07,1.07,0,0,1-.91,1.14,1.8,1.8,0,0,1-1.49.76c-.74,0-1.11-.14-2.37-.93a1.56,1.56,0,0,0-1-.35.69.69,0,0,0-.77.64c0,.34.28.57.89.73a1,1,0,0,1,.62.32,1,1,0,0,1,.31-.05,3.32,3.32,0,0,1,2,.86,3.18,3.18,0,0,1,2.17,2.63,2.22,2.22,0,0,1-2.11,2.17,6.88,6.88,0,0,1-1.43-.23" transform="translate(0 -0.96)"/><path class="cls-6" d="M20.28,22.19a2.14,2.14,0,0,1-.07-.45l0-.15.05-.3,0-.24a.89.89,0,0,0-.13-.55L20,20.2a1.23,1.23,0,0,1-.19-.36.68.68,0,0,1,0-.15.13.13,0,0,1,.14-.14c.05,0,.07,0,.24.11a.38.38,0,0,0,.18.06c.11,0,.17-.18.17-.49a1.19,1.19,0,0,0-.11-.65l-.28-.31-.24-.21a.24.24,0,0,1-.1-.16.14.14,0,0,1,.15-.14,1.4,1.4,0,0,1,.41.1l.09,0c.07,0,.1-.05.1-.16v-.07l-.06-.39-.11-.41c0-.13-.06-.15-.14-.15h-.05l-.46.09h-.07a1.65,1.65,0,0,1-1.45-1.16l-.37-1.21a2.51,2.51,0,0,0-.9-1.13.79.79,0,0,0-.37-.21l-.33,0a.09.09,0,0,1-.1-.09c0-.07.07-.11.23-.11l.61.06a4.31,4.31,0,0,1,1,.26,4,4,0,0,0,1.25.27,1.3,1.3,0,0,0,1.48-1.34,2.36,2.36,0,0,0-.76-1.65,1.75,1.75,0,0,0-.61-.41.1.1,0,0,0-.09.1l0,.24v0c0,.09-.06.17-.13.17s-.2-.13-.32-.38A1.78,1.78,0,0,0,17.25,9c-.09,0-.16,0-.16.1a1,1,0,0,0,.09.27l.15.33a.67.67,0,0,1,.06.17s0,0-.08,0A.53.53,0,0,1,17,9.78l-.28-.3-.24-.37a1.66,1.66,0,0,0-.76-.65l-.44-.24A.53.53,0,0,0,15,8.14c-.07,0-.1,0-.1.1a.35.35,0,0,0,.07.2,1.19,1.19,0,0,1,.19.37.11.11,0,0,1-.1.11c-.14,0-.44-.29-.71-.68a1.91,1.91,0,0,1-.33-1A1.34,1.34,0,0,1,15.43,5.8a2.8,2.8,0,0,1,1.4.47l.87.53a2.28,2.28,0,0,0,1,.34,2.6,2.6,0,0,0,.55-.09,1.12,1.12,0,0,0,.22-.1c.05,0,.09-.07.09-.1a.08.08,0,0,0-.05-.08l-.11,0L19,6.66a2.59,2.59,0,0,1-.5-.19c-.49-.23-.8-.38-.93-.46A5,5,0,0,0,17,5.65c-.15-.05-.25-.12-.25-.17s0-.09.08-.09a.37.37,0,0,1,.2.08,1.45,1.45,0,0,0,.69.26l.8.28a5.33,5.33,0,0,0,1.23.26.62.62,0,0,0,.62-.62A1.55,1.55,0,0,0,20,4.84c0-.06-.09-.1-.12-.1s-.12,0-.12.15l0,.15,0,.22a.4.4,0,0,1-.37.43.93.93,0,0,1-.29-.06l-1.21-.39a6.34,6.34,0,0,0-2-.42,2.38,2.38,0,0,0-2.54,2.29c0,1.48,1,2.44,3.6,3.32s2.88,1.08,2.88,1.72a.78.78,0,0,1-.8.71,1.89,1.89,0,0,1-.44,0c-.09,0-.51-.11-1.27-.29a9,9,0,0,0-2.31-.26c-1.82,0-2.83.31-3.71,1.17a.6.6,0,0,1-.54.24H10.7l-.26,0h0a.58.58,0,0,0-.52.33c-.2.32-.3.49-.32.5a.25.25,0,0,1-.21.12c-.17,0-.27-.13-.46-.58a1.49,1.49,0,0,0-.39-.56l-.37-.33A.26.26,0,0,1,8,13a.38.38,0,0,1,.07-.18,1.33,1.33,0,0,0,.26-.48c.05-.25.06-.26.16-.26s.15.11.16.54a1.28,1.28,0,0,0,.15.5l.2.45a.19.19,0,0,0,.17.09c.19,0,.44-.45.5-.93s.1-.52.18-.52.07,0,.08,0a2.54,2.54,0,0,1,.17.33.78.78,0,0,0,.24.28.82.82,0,0,0,.22.13h0c.15,0,.2-.1.23-.45l0-.18,0-.26,0-.18c0-.12,0-.19.11-.19a.21.21,0,0,1,.14.07l.18.19a.56.56,0,0,0,.37.18c.16,0,.25-.06.25-.16a.91.91,0,0,0-.17-.43l-.13-.24c-.15-.28-.27-.39-.41-.39L11,11l-.22.09-.14,0s-.06,0-.06-.07a1.75,1.75,0,0,1,.31-.76,3.65,3.65,0,0,0,.3-1.46c.06-1,.19-1.6.33-1.6s.13.08.13.29v.43c0,.17,0,.31.08.31s.35-.23.5-.62a1.26,1.26,0,0,0,.1-.38l0-.08-.37-.69-.38-.11a.26.26,0,0,1-.13-.08V5.82l0-.22-.08-.19-.09-.2a2,2,0,0,0-.74.55c-.15.2-.23.27-.3.27a.09.09,0,0,1-.09-.1,1.42,1.42,0,0,1,0-.3v-.1a1.29,1.29,0,0,0-.64-1l-.11.15-.13.19L9,5.08a.91.91,0,0,0-.19.37.59.59,0,0,0,0,.21v.1c0,.15,0,.19-.08.19l0,0-.13-.18-.2-.23L8,5.32l-.17-.13-.07.17a.71.71,0,0,0-.09.29l0,.3,0,.32v.05c0,.16,0,.23-.13.23a.55.55,0,0,1-.22-.1A.52.52,0,0,0,7,6.38a.47.47,0,0,0-.48.51,1.6,1.6,0,0,0,.3,1l.24.32c.07.08.19.16.2.11l.05-.39-.06-.32V7.44c0-.12,0-.19.11-.19s.17.11.23.43l.15.69.15.87a4.06,4.06,0,0,0,.22.74,4.16,4.16,0,0,0,.32.65c.2.27.23.3.23.36a.09.09,0,0,1-.08.09A.38.38,0,0,1,8.41,11,.71.71,0,0,0,8.19,11l-.15,0c-.3,0-.36.25-.36,1.49A7.41,7.41,0,0,0,8,14.7l.39,1a1.35,1.35,0,0,1,.09.47c0,1.35-1.79,3.48-3.77,4.46a1.52,1.52,0,0,0-1,1.52l0,.24a3.13,3.13,0,0,1,.63-.26c.56-.14.66-.21.75-.48l.07-.24c0-.09.07-.13.5-.36a.7.7,0,0,0,.3-.24c.09-.15.17-.24.22-.24s.07,0,.07.06v.07l-.19.53,0,.13a1,1,0,0,0,.62.92,1.62,1.62,0,0,1,.24-.78L7.22,21a1.36,1.36,0,0,0,.18-.8,3.39,3.39,0,0,0-.05-.58v-.14c0-.1,0-.15.13-.15s.12,0,.12.05l.08.36a.18.18,0,0,0,.18.13c.18,0,.41-.23.65-.65a1,1,0,0,0,.14-.5l0-.25-.06-.27V18.1c0-.12.07-.21.17-.21a.09.09,0,0,1,.08,0l.11.43c0,.14.14.24.24.24s.34-.21.47-.46a1.73,1.73,0,0,0,.17-.76c0-.4,0-.51.18-.51s.09,0,.09,0l.08.24c0,.09.08.15.13.15s.29-.23.43-.46a.49.49,0,0,0,.05-.18c0-.08-.05-.15-.17-.25a.4.4,0,0,1-.2-.43,1.15,1.15,0,0,1,.2-.65c.09-.16.17-.31.25-.44.23-.46.31-.58.4-.58a.16.16,0,0,1,.14.16.42.42,0,0,1,0,.15.69.69,0,0,0-.08.23.13.13,0,0,0,.14.13.75.75,0,0,0,.33-.11,4.74,4.74,0,0,1,.52-.21l.61-.22a1,1,0,0,1,.37-.06,1.86,1.86,0,0,1,.34,0,2.91,2.91,0,0,0,.42.08.33.33,0,0,0,.32-.31,1.17,1.17,0,0,0-.3-.57.31.31,0,0,1-.09-.17l0-.07a.1.1,0,0,1,.1-.07c.12,0,.42.31.68.72,1.6,2.52,2.17,3.13,3.25,3.46s1.38.58,1.38,1.23a2.43,2.43,0,0,1-.58,1.33,3.63,3.63,0,0,0-1,2.33v.14l.2-.09a1.35,1.35,0,0,1,.3-.13l.46-.1a.38.38,0,0,0,.26-.37v0l-.05-.41v-.06a.54.54,0,0,1,.17-.39.21.21,0,0,1,.1,0,.18.18,0,0,1,.14.12l.3.63c.12.26.26.38.65.56" transform="translate(0 -0.96)"/><path class="cls-6" d="M5.3,8.72c-.13,0-.2.11-.21.37l0,.35c0,.33,0,.37,0,.45,0,.27.08.46.19.46s.3-.22.4-.48a1.2,1.2,0,0,0,0-.86c-.07-.18-.17-.29-.29-.29" transform="translate(0 -0.96)"/><path class="cls-6" d="M3.6,5.82V6A5,5,0,0,1,3.36,7.2a1.22,1.22,0,0,0-.06.33A.86.86,0,0,0,3.45,8a.49.49,0,0,0,.17.18l.22.11,0,.26a1.33,1.33,0,0,0,.05.41A2.16,2.16,0,0,1,4,9.48c0,.15,0,.21,0,.21s-.19-.19-.3-.47c-.18-.45-.34-.62-.6-.62a1.28,1.28,0,0,0-.58.15l.12.15s.07.13.16.32l.26.5c.18.35.29.55.32.6a1.07,1.07,0,0,0,.26.26l.3.16c.09,0,.15.12.15.17a.15.15,0,0,1-.16.15h0l-.24,0H3.5c-.07,0-.11.06-.11.2a2.21,2.21,0,0,0,1.1,1.59c.08.07.15.15.15.2a.13.13,0,0,1-.14.12.71.71,0,0,1-.23-.07.27.27,0,0,0-.13,0c-.09,0-.15.07-.15.19a2.44,2.44,0,0,0,.33.83,1.26,1.26,0,0,0,.64.61l.83.36a.12.12,0,0,1,.08.11.14.14,0,0,1-.12.13l-.16,0-.15,0-.24,0h0c-.12,0-.16,0-.16.08a1.75,1.75,0,0,0,.27.6c.2.34.37.52.48.52a.15.15,0,0,0,.12-.09l.2-.43a1.66,1.66,0,0,1,.48-.37,1.54,1.54,0,0,1,.52-.2l.34-.06c.09,0,.13-.07.13-.17v-.05l-.06-.35,0-.39,0-.36,0-.41q0-.15-.09-.15s-.12.06-.17.14c-.29.44-.49.59-.81.59-1,0-1.73-1.74-1.73-4.05,0-.2,0-.45,0-.76.05-.59.06-.74.06-1A2.92,2.92,0,0,0,4,6.27L3.77,6,3.6,5.82" transform="translate(0 -0.96)"/><path class="cls-6" d="M6,19.4a2.24,2.24,0,0,1-.54-.13l-.36-.15a1.83,1.83,0,0,0-.71-.19,1.14,1.14,0,0,0-.77.32l.17.13.37.26.35.28a.51.51,0,0,0,.31.11A1.76,1.76,0,0,0,6,19.4" transform="translate(0 -0.96)"/><path class="cls-6" d="M13.15,22.78a1,1,0,0,1,.37-.48c.52-.45.76-.78.76-1v-.41c0-.24,0-.32.16-.32s.11,0,.12.06l.09.22a.18.18,0,0,0,.16.09c.07,0,.18-.09.27-.22l.19-.26a.61.61,0,0,0,.13-.36.57.57,0,0,0,0-.22s-.06-.13-.13-.29a1.07,1.07,0,0,1-.08-.29c0-.12.06-.2.17-.2a.16.16,0,0,1,.13.06l.15.19a.17.17,0,0,0,.14.06.23.23,0,0,0,.19-.16l.15-.29a.49.49,0,0,0,.06-.17c0-.06-.06-.12-.17-.17l-.24-.11a1.35,1.35,0,0,1-.56-1.19.45.45,0,0,1,0-.2l.13-.32a.73.73,0,0,0,.06-.3,1.08,1.08,0,0,0-.19-.57A4.08,4.08,0,0,1,15,15.5c-.11-.3-.17-.38-.26-.38l-.09,0-.13.07-.21.11-.24.3-.26.13a.86.86,0,0,0-.3.68c0,.48,0,.62.69,1.72a2.27,2.27,0,0,1,.38,1.06c0,.76-.68,1.3-2.05,1.63l-.86.2a1.47,1.47,0,0,0-1.13,1.32,1.41,1.41,0,0,1,.82-.15h.32c.25,0,.28,0,.44-.24a1.37,1.37,0,0,1,.61-.52l.3-.13.24-.13.07,0c.07,0,.11,0,.11.08a.6.6,0,0,1-.18.31,1,1,0,0,0-.3.72.7.7,0,0,0,.21.49" transform="translate(0 -0.96)"/><path class="cls-6" d="M10.81,19.9a2.06,2.06,0,0,1,.55.5c.18.25.21.26.38.26a.93.93,0,0,0,.27,0l.17,0c.31-.06.41-.11.41-.18a.24.24,0,0,0-.09-.16l-.21-.18-.2-.19a1,1,0,0,0-.61-.21,1.16,1.16,0,0,0-.67.23" transform="translate(0 -0.96)"/><path class="cls-6" d="M16.83,20.9h.11l.17,0,.16,0h.08a.81.81,0,0,0,.81-.72c0-.13-.11-.2-.32-.2-.5,0-.82.29-1,.93" transform="translate(0 -0.96)"/><path class="cls-6" d="M54.94,22.19a1.37,1.37,0,0,1,0-.35l0-.25a6,6,0,0,0,.06-.72.54.54,0,0,0-.14-.37l-.22-.3a.83.83,0,0,1-.2-.51c0-.11,0-.14.1-.14l.08,0,.17.09a.42.42,0,0,0,.18.06c.12,0,.17-.17.17-.52a1,1,0,0,0-.37-.93l-.26-.21a.18.18,0,0,1-.08-.15.14.14,0,0,1,.14-.15l.22,0,.2.06.08,0c.07,0,.09-.05.09-.16v-.07l-.06-.39c0-.4-.12-.56-.24-.56h0l-.49.09h-.08a1.7,1.7,0,0,1-1.44-1.16l-.35-1.21a2.47,2.47,0,0,0-.9-1.13.77.77,0,0,0-.38-.21l-.34,0a.09.09,0,0,1-.1-.09c0-.07.06-.11.2-.11a5.27,5.27,0,0,1,1.65.32,4,4,0,0,0,1.24.27c.93,0,1.49-.49,1.49-1.29a2.49,2.49,0,0,0-.36-1.23,2.77,2.77,0,0,0-.87-.82.29.29,0,0,0-.15-.06.1.1,0,0,0-.09.1l0,.24v0c0,.09-.05.17-.12.17s-.21-.12-.33-.38A1.76,1.76,0,0,0,51.94,9c-.12,0-.19,0-.19.12a.58.58,0,0,0,.09.25,1.69,1.69,0,0,1,.17.33.54.54,0,0,1,.05.16s0,0-.09,0a.51.51,0,0,1-.31-.17l-.28-.3-.24-.37a1.78,1.78,0,0,0-.75-.65l-.46-.24a.56.56,0,0,0-.24-.08.08.08,0,0,0-.09.09.4.4,0,0,0,.09.21.88.88,0,0,1,.17.37.1.1,0,0,1-.09.11c-.13,0-.37-.23-.7-.68a1.81,1.81,0,0,1-.35-1A1.37,1.37,0,0,1,50.1,5.8a2.83,2.83,0,0,1,1.39.47l.89.53a2.24,2.24,0,0,0,1,.34,1.8,1.8,0,0,0,.52-.09.91.91,0,0,0,.24-.1.11.11,0,0,0,.07-.11c0-.07,0-.1-.16-.11A5.42,5.42,0,0,1,52.23,6a5.36,5.36,0,0,0-.61-.36c-.15-.05-.26-.13-.26-.19s0,0,.08,0l.11,0,.81.3.78.28a5.27,5.27,0,0,0,1.25.26.58.58,0,0,0,.6-.6,1.24,1.24,0,0,0-.12-.52c-.11-.22-.26-.41-.32-.41s-.12.08-.12.2V5l0,.24c0,.25-.14.41-.35.41a1,1,0,0,1-.31-.06L52.6,5.24a6.06,6.06,0,0,0-2-.42,2.38,2.38,0,0,0-2.56,2.29c0,1.49,1,2.41,3.62,3.32s2.86,1.08,2.86,1.74a.75.75,0,0,1-.8.69,1.89,1.89,0,0,1-.44,0l-1.26-.29a9.09,9.09,0,0,0-2.31-.26c-1.85,0-2.73.28-3.69,1.17a.69.69,0,0,1-.56.24h-.13l-.29,0a.6.6,0,0,0-.53.33l-.3.5a.24.24,0,0,1-.21.12c-.19,0-.29-.13-.47-.58a1.48,1.48,0,0,0-.37-.56l-.39-.33c-.06-.05-.1-.1-.1-.14a.41.41,0,0,1,.1-.18,2,2,0,0,0,.16-.26.89.89,0,0,0,.1-.22v-.17a.15.15,0,0,1,.14-.09c.12,0,.14.08.14.54a1.28,1.28,0,0,0,.15.5l.21.45a.18.18,0,0,0,.16.09c.2,0,.44-.45.51-.93s.09-.52.17-.52.11,0,.27.37a1,1,0,0,0,.22.28.5.5,0,0,0,.23.13h0c.15,0,.2-.09.24-.45v-.18l0-.26,0-.18c0-.12,0-.19.11-.19a.21.21,0,0,1,.14.07l.19.19a.54.54,0,0,0,.37.18c.16,0,.26-.07.26-.18s0-.14-.19-.41c0,0-.06-.11-.13-.24C46.07,11,46,11,45.85,11l-.19,0-.25.09a.43.43,0,0,1-.14,0,.07.07,0,0,1-.06-.07,1.64,1.64,0,0,1,.32-.76,4.46,4.46,0,0,0,.31-1.46l.1-.87c.05-.54.11-.73.22-.73s.07,0,.07,0l.06.28v.22a1.1,1.1,0,0,0,.06.49c.08,0,.2-.09.31-.25a1.43,1.43,0,0,0,.19-.37,1.77,1.77,0,0,0,.09-.48c0-.43-.18-.62-.76-.78-.06,0-.1,0-.11-.06l0-.16V5.82l0-.22-.07-.19-.1-.2-.15.09a2,2,0,0,0-.59.46c-.17.22-.23.27-.3.27A.09.09,0,0,1,44.71,6l.07-.32v0a1.39,1.39,0,0,0-.64-1.1L44,4.63l-.13.19-.22.26a.86.86,0,0,0-.21.55v.12c0,.15,0,.2-.09.2l-.05,0-.14-.18L43,5.52l-.33-.2-.17-.13a1.55,1.55,0,0,0-.19.93v.16c0,.16-.05.26-.14.26a.57.57,0,0,1-.23-.09.52.52,0,0,0-.27-.07.49.49,0,0,0-.47.54,1.58,1.58,0,0,0,.3.94c.14.24.33.44.42.44A1.85,1.85,0,0,0,42,7.9l-.06-.32V7.44c0-.12,0-.19.11-.19s.17.11.24.43l.15.69.14.87a3.46,3.46,0,0,0,.23.74,3.61,3.61,0,0,0,.31.65c.21.27.23.3.23.36a.09.09,0,0,1-.08.09.38.38,0,0,1-.17-.06.63.63,0,0,0-.22-.07l-.13,0c-.31,0-.37.24-.37,1.48a7.82,7.82,0,0,0,.35,2.29l.39,1a1.37,1.37,0,0,1,.1.47c0,1.36-1.84,3.53-3.78,4.46-.75.36-1,.74-1,1.76a4.1,4.1,0,0,1,.65-.26c.54-.15.66-.23.74-.48l.07-.24c0-.11.1-.16.49-.36a.65.65,0,0,0,.29-.24c.1-.16.17-.24.22-.24s.09,0,.09.1v0l-.2.53,0,.13a1,1,0,0,0,.62.92c0-.1,0-.17.06-.22a1.79,1.79,0,0,1,.18-.56L41.9,21c.13-.19.16-.31.16-.79l0-.59v-.15a.12.12,0,0,1,.13-.14c.07,0,.12,0,.13.05l0,.36a.18.18,0,0,0,.18.13c.18,0,.41-.23.66-.65a.89.89,0,0,0,.13-.45,5.29,5.29,0,0,0-.06-.57v-.11a.14.14,0,0,1,.15-.16s.08,0,.08,0l.13.43c0,.14.15.24.25.24.28,0,.58-.58.61-1.21,0-.39.07-.53.19-.53a.09.09,0,0,1,.09.05l.07.24c0,.09.08.15.13.15s.15-.08.26-.22a1.77,1.77,0,0,0,.17-.24.39.39,0,0,0,0-.2c0-.09,0-.12-.16-.23A.47.47,0,0,1,45,16a2.41,2.41,0,0,1,.45-1.13c.3-.53.34-.59.42-.59s.12.07.12.16a.29.29,0,0,1,0,.16.77.77,0,0,0-.08.23.14.14,0,0,0,.15.13.78.78,0,0,0,.34-.11,3.2,3.2,0,0,1,.5-.21l.63-.22a1.21,1.21,0,0,1,.38-.06,1.86,1.86,0,0,1,.33,0,2.54,2.54,0,0,0,.43.08.29.29,0,0,0,.3-.3.75.75,0,0,0-.12-.32,2.24,2.24,0,0,0-.17-.26c-.08-.08-.11-.13-.11-.16l0-.08a.11.11,0,0,1,.11-.07c.14,0,.43.29.69.72,1.46,2.38,2.16,3.13,3.23,3.46S54,18.06,54,18.73a2.45,2.45,0,0,1-.58,1.32,3.89,3.89,0,0,0-1,2.32v.15l.2-.09a1.35,1.35,0,0,1,.3-.13l.46-.1a.38.38,0,0,0,.27-.39v0l0-.41V21.3c0-.23.12-.42.26-.42A.18.18,0,0,1,54,21l.29.63a1.12,1.12,0,0,0,.65.56" transform="translate(0 -0.96)"/><path class="cls-6" d="M39.71,9.44l0,.3v.18c0,.3.05.43.16.43s.31-.23.4-.48a2.1,2.1,0,0,0,.1-.5,1,1,0,0,0-.1-.36c-.08-.2-.17-.29-.27-.29s-.24.2-.27.72" transform="translate(0 -0.96)"/><path class="cls-6" d="M38.26,5.82V6a3.88,3.88,0,0,1-.14.79c-.07.26-.1.4-.11.43a1.75,1.75,0,0,0,0,.33.7.7,0,0,0,.32.61l.21.11,0,.26a1.12,1.12,0,0,0,.06.41,2.2,2.2,0,0,1,.07.56c0,.16,0,.21,0,.21s-.2-.19-.31-.47c-.18-.45-.34-.62-.59-.62a1.22,1.22,0,0,0-.58.15,4.64,4.64,0,0,1,.54,1c.29.66.41.79.87,1,.1,0,.17.12.17.17a.15.15,0,0,1-.17.15l-.26,0h-.14c-.07,0-.1.06-.1.21a2.26,2.26,0,0,0,1.11,1.58c.1.07.15.14.15.19a.12.12,0,0,1,0,.09.16.16,0,0,1-.1,0,.75.75,0,0,1-.22-.07.27.27,0,0,0-.14,0c-.09,0-.14.08-.14.21A1.82,1.82,0,0,0,39,14a1.47,1.47,0,0,0,.61.61l.84.36a.12.12,0,0,1,.07.1.15.15,0,0,1-.11.14l-.15,0-.17,0-.22,0h0c-.11,0-.16,0-.16.08a1.65,1.65,0,0,0,.27.6c.21.36.35.52.46.52a.14.14,0,0,0,.12-.09l.2-.43a2.45,2.45,0,0,1,.49-.37,1.25,1.25,0,0,1,.52-.2c.44-.06.48-.08.48-.27a2,2,0,0,0-.06-.36c0-.1,0-.23,0-.39l0-.36,0-.41q0-.15-.09-.15s-.1.06-.15.14a1.12,1.12,0,0,1-.8.59c-1,0-1.74-1.65-1.74-4.08l0-.73,0-.87V8.17a2.87,2.87,0,0,0-.64-1.9L38.43,6l-.17-.19" transform="translate(0 -0.96)"/><path class="cls-6" d="M40.66,19.4a2.92,2.92,0,0,1-.89-.28,1.8,1.8,0,0,0-.7-.19,1.18,1.18,0,0,0-.79.32l.17.13.37.26.35.28a.54.54,0,0,0,.32.11c.36,0,.67-.16,1.17-.63" transform="translate(0 -0.96)"/><path class="cls-6" d="M47.81,22.78a1,1,0,0,1,.37-.48c.52-.45.76-.78.76-1v-.41c0-.24,0-.32.17-.32s.1,0,.11.06l.1.22a.15.15,0,0,0,.15.08c.14,0,.23-.09.46-.47a.69.69,0,0,0,.14-.37.63.63,0,0,0,0-.21l-.13-.29a1,1,0,0,1-.07-.29c0-.12.06-.2.16-.2a.17.17,0,0,1,.14.06l.14.19s0,.06.1.06a.31.31,0,0,0,.24-.16l.15-.29a.68.68,0,0,0,0-.17.22.22,0,0,0-.15-.17l-.26-.11a1.32,1.32,0,0,1-.55-1.15.93.93,0,0,1,0-.24l.11-.32a.85.85,0,0,0,.06-.31,1,1,0,0,0-.19-.56,3.48,3.48,0,0,1-.22-.39c-.11-.28-.17-.37-.26-.37a.42.42,0,0,0-.24.09l-.19.11-.26.3-.26.13a.9.9,0,0,0-.3.69c0,.41.09.62.69,1.71a2.27,2.27,0,0,1,.38,1.05c0,.76-.77,1.38-2,1.64-1.51.31-1.83.56-2,1.52a1.45,1.45,0,0,1,.83-.15h.31c.25,0,.28,0,.44-.24a1.39,1.39,0,0,1,.62-.52l.29-.13.24-.13.08,0c.07,0,.1,0,.1.08a.64.64,0,0,1-.18.31,1.08,1.08,0,0,0-.28.62.89.89,0,0,0,.19.59" transform="translate(0 -0.96)"/><path class="cls-6" d="M45.47,19.9a2.27,2.27,0,0,1,.56.5c.18.25.2.26.38.26a1,1,0,0,0,.27,0l.17,0c.31-.06.41-.11.41-.19a.21.21,0,0,0-.08-.15L47,20.07l-.21-.19a1,1,0,0,0-.58-.2,1.32,1.32,0,0,0-.7.22" transform="translate(0 -0.96)"/><path class="cls-6" d="M51.49,20.9h.11l.19,0,.15,0H52a.56.56,0,0,0,.36-.08,1.47,1.47,0,0,0,.35-.43.43.43,0,0,0,.08-.21c0-.12-.12-.2-.32-.2-.51,0-.82.29-1,.93" transform="translate(0 -0.96)"/><path class="cls-6" d="M18.48,60.16l.11-.23.26-.28a1.37,1.37,0,0,0,.34-1,1.84,1.84,0,0,0-.1-.6,1.72,1.72,0,0,1-.07-.32c0-.12.08-.23.17-.23a.21.21,0,0,1,.14.09l.28.32a.62.62,0,0,0,.45.27l0-.26,0-.3a2.23,2.23,0,0,0-.41-1.26c-.15-.19-.22-.3-.22-.37a.12.12,0,0,1,.1-.13l.08,0c.18.13.27.19.32.19s.17-.23.17-.47a1.75,1.75,0,0,0-.38-1c-.12-.14-.19-.24-.22-.28a.14.14,0,0,1,0-.1.15.15,0,0,1,.16-.14.4.4,0,0,1,.23.09.3.3,0,0,0,.14.06c.15,0,.2-.21.2-.76v-.23l0-.33c0-.39-.06-.46-.23-.46h-.14c-.91,0-1.33-.58-1.57-2.12-.16-1.12-.58-1.91-1.09-2.08-.31-.11-.42-.17-.42-.25s.09-.11.18-.11a1.37,1.37,0,0,1,.35.1,5.17,5.17,0,0,0,1.91.44A1.52,1.52,0,0,0,20.79,47,2.57,2.57,0,0,0,20,45.16a1.08,1.08,0,0,0-.47-.27h0l-.1,0,0,.27.07.19,0,.08a.07.07,0,0,1-.08.07.16.16,0,0,1-.14-.08l-.33-.5a1.77,1.77,0,0,0-1.28-.73c-.15,0-.25.07-.25.18a.45.45,0,0,0,.11.22.56.56,0,0,1,.17.29l0,.08s-.05.07-.07.07h0c-.09,0-.13,0-.54-.5a2.37,2.37,0,0,0-1.37-.74.19.19,0,0,0-.13,0,.12.12,0,0,0,0,.08.34.34,0,0,0,.13.2.65.65,0,0,1,.2.29s0,.07-.1.07-.34-.16-.79-.51a2.09,2.09,0,0,1-1-1.65,1.21,1.21,0,0,1,1.17-1.28,2.24,2.24,0,0,1,1.24.45l.91.68a2.41,2.41,0,0,0,1.47.49A.72.72,0,0,0,19,42.6c.08,0,.13-.09.13-.12s-.07-.06-.17-.08a2.18,2.18,0,0,1-.78-.34l-.93-.7a6.66,6.66,0,0,0-.72-.5c-.49-.26-.59-.32-.59-.38s.05,0,.11,0l.16,0,.48.21a5.83,5.83,0,0,1,.78.46A3.67,3.67,0,0,0,19.6,42a.9.9,0,0,0,.89-1.25l-.1-.18c0-.07-.09-.12-.11-.1l-.05.08-.06.39a.53.53,0,0,1-.06.13.59.59,0,0,1-.13.18.41.41,0,0,1-.34.14c-.28,0-.61-.16-1.48-.71a4.6,4.6,0,0,0-2.3-.86,2.4,2.4,0,0,0-2.41,2.41c0,1.87,1.13,2.71,4.69,3.48,1.36.3,2,.69,2,1.3s-.45.89-1.15.89a3.3,3.3,0,0,1-.51,0l-1.91-.52A9.28,9.28,0,0,0,14.05,47a3.32,3.32,0,0,0-3,1.31c-.08.11-.15.17-.2.17a.4.4,0,0,1-.16-.07l-.26-.21A1.26,1.26,0,0,0,9.79,48a.54.54,0,0,0-.39.16.74.74,0,0,1-.19.13c-.11,0-.3-.23-.45-.54a3.07,3.07,0,0,1-.31-1.26c0-.19.06-.32.14-.32s.11,0,.14.15l.15.54c.08.3.25.54.37.54s.16-.08.28-.23a.94.94,0,0,0,.14-.26c.12-.34.15-.39.24-.39s.16.07.24.41a.92.92,0,0,0,.12.32,1.57,1.57,0,0,0,.22.33.3.3,0,0,0,.19.1c.17,0,.32-.27.32-.57V47l0-.35c0-.13,0-.17.1-.17s.07,0,.13.09a1,1,0,0,0,.31.26.69.69,0,0,0,.27.09.28.28,0,0,0,.18-.09.22.22,0,0,0,.08-.15c0-.05-.07-.14-.27-.34a2.42,2.42,0,0,1-.37-.74c-.05-.14-.12-.24-.17-.24l-.13,0-.24.09-.16.07-.07,0a.13.13,0,0,1-.14-.13,1.17,1.17,0,0,1,.37-.44.65.65,0,0,0,.24-.5c0-.31.07-.56.13-.56l.06-.65A6.69,6.69,0,0,1,11.57,42c0-.07,0-.11.07-.11s.1.13.1.29v.28c0,.24,0,.36.11.36s.17-.12.25-.32l.17-.43a.9.9,0,0,0,.07-.34.56.56,0,0,0-.52-.63l-.13,0-.13,0a.21.21,0,0,1-.18-.23v-.27l0-.37-.07-.39,0-.19-.17.09-.2.17-.3.24-.24.21a.24.24,0,0,1-.14,0c-.14,0-.16,0-.16-.32v-.08c0-.23-.1-.41-.48-.86l-.09-.11-.08.13-.2.33-.2.52,0,.34c0,.09-.05.17-.09.17s-.1-.05-.17-.14a1.48,1.48,0,0,0-.8-.53l0,.13-.11.39,0,.35v.27c0,.1,0,.16-.1.16h0l-.11-.1a.41.41,0,0,0-.23-.05c-.34,0-.56.18-.56.48s.07.39.42.91c.15.23.32.41.39.41s.09-.12.09-.26l0-.22a1.18,1.18,0,0,1,0-.29c0-.1,0-.16.09-.16S8,42.43,8,43.1l.07.69a2.34,2.34,0,0,0,.23.74,1.82,1.82,0,0,0,.48.69c.18.13.29.25.29.32a.12.12,0,0,1-.1.11l-.38-.13-.15,0c-.37,0-.5.22-.5.86a3.52,3.52,0,0,0,1.1,2.34l.85.69a2,2,0,0,1,.77,1.34c0,.54-.6,1.08-1.62,1.45l-.61.22c-.48.17-.67.48-.86,1.38a1.45,1.45,0,0,1,.51-.1h.36a.39.39,0,0,0,.43-.36v-.17S9,53,9.08,53l.26-.13.2-.17a.17.17,0,0,1,.11,0,.11.11,0,0,1,.1.11.38.38,0,0,1,0,.17,1.91,1.91,0,0,0-.1.64,1.56,1.56,0,0,0,.31,1c0-.12,0-.2.05-.24a3.86,3.86,0,0,1,.32-.5,2.5,2.5,0,0,0,.49-1.13v-.08l-.06-.43a.28.28,0,0,1,.1-.2.17.17,0,0,1,.12-.06c.08,0,.13,0,.19.19s.1.17.14.17.19-.17.27-.37a1.13,1.13,0,0,0,.09-.4.57.57,0,0,0,0-.24.57.57,0,0,1-.06-.21c0-.05,0-.07.08-.12a.18.18,0,0,1,.09,0,.21.21,0,0,1,.11,0l.17.11a.29.29,0,0,0,.15.06c.07,0,.18-.09.26-.21a1.57,1.57,0,0,0,.26-.53s0-.08-.13-.15a1.37,1.37,0,0,1-.62-1,.74.74,0,0,1,.06-.27l.19-.5a4,4,0,0,1,.15-.39l.05,0c.06,0,.1.05.1.14a.59.59,0,0,1,0,.21,1.13,1.13,0,0,0-.08.36.18.18,0,0,0,.19.2.76.76,0,0,0,.31-.07,3.73,3.73,0,0,1,1.28-.38,1,1,0,0,1,.67.25.32.32,0,0,0,.18.07.15.15,0,0,0,.1-.07.14.14,0,0,0,0-.09.45.45,0,0,0-.11-.25.41.41,0,0,1-.13-.26c0-.06,0-.09.1-.09.29,0,.75.92,1.18,2.38.34,1.15.44,1.27,1.54,1.89A2,2,0,0,1,19,54.27a10.65,10.65,0,0,1-.71,3.3,2.31,2.31,0,0,0,0,1.88c.07.24.11.38.13.43a2.11,2.11,0,0,0,.15.28" transform="translate(0 -0.96)"/><path class="cls-6" d="M14.17,57.56a3,3,0,0,1,.35-.64,1.78,1.78,0,0,0,.41-.91v-.29c0-.28.05-.41.16-.41a.12.12,0,0,1,.1,0l.09.15a.16.16,0,0,0,.13.08.34.34,0,0,0,.21-.16,1.24,1.24,0,0,0,.22-.66l0-.21,0-.21a.14.14,0,0,1,.16-.16c.07,0,.1,0,.16.17s.1.15.14.15a.22.22,0,0,0,.16-.11l.15-.23.11-.16,0-.09c0-.05-.05-.1-.14-.17a1.49,1.49,0,0,1-.52-1.32,4.85,4.85,0,0,0-.1-1s-.12-.31-.33-.8a4.79,4.79,0,0,1-.22-.67c-.05-.17-.1-.22-.24-.22a.93.93,0,0,0-.88,1,4.77,4.77,0,0,0,.39,1.5,4.37,4.37,0,0,1,.45,1.55c0,.68-.27,1-1.21,1.31A2.34,2.34,0,0,0,12.16,57l.19-.08c.12,0,.2-.08.26-.09l.3-.07c.25-.07.46-.21.5-.36l.07-.26a.24.24,0,0,1,.11-.13l.17-.07.17-.07,0,.07-.08.24a1.93,1.93,0,0,0,0,.43,1.32,1.32,0,0,0,.32,1" transform="translate(0 -0.96)"/><path class="cls-6" d="M4.19,40.37a.87.87,0,0,1,0,.21,3.43,3.43,0,0,1-.07.48l0,.38a2.93,2.93,0,0,0,.17,1,1.63,1.63,0,0,1,.12.42v.08c0,.07-.05.13-.07.13a.38.38,0,0,1-.19-.11,1,1,0,0,0-.69-.28l-.31,0,.09.21.28.69.39.59.41.28.11.11a.28.28,0,0,1,0,.12s0,.06-.07.07H4c-.06,0-.11,0-.11.08a3.33,3.33,0,0,0,.16.56l.19.54.31.29.34.24a.31.31,0,0,1,.16.22s0,.1-.07.1l-.18,0c-.07,0-.1.06-.1.15a1.64,1.64,0,0,0,.37.72c.29.39.49.52.82.52H6.2c.13,0,.22.07.22.17s-.06.14-.18.17-.34.1-.34.22A.34.34,0,0,0,6,49l.14.21c.13.17.27.28.36.28a.47.47,0,0,0,.27-.17,1.14,1.14,0,0,1,.6-.41c.65-.16.78-.23.78-.38a.43.43,0,0,0-.07-.21,1.69,1.69,0,0,1-.28-.91c0-.23-.06-.4-.15-.4s-.09.06-.15.15a.82.82,0,0,1-.65.4c-.64,0-1.42-1-1.8-2.35a3.61,3.61,0,0,1-.14-1,5.13,5.13,0,0,1,.14-1.13c.12-.55.19-.85.2-.91l0-.26a2.21,2.21,0,0,0-1.09-1.51" transform="translate(0 -0.96)"/><path class="cls-6" d="M5.53,43a3.21,3.21,0,0,0-.26,1.21c0,.22.07.39.16.39s.07,0,.1-.09l.21-.37a1.5,1.5,0,0,1,.13-.23A.73.73,0,0,0,6,43.58.86.86,0,0,0,5.53,43" transform="translate(0 -0.96)"/><path class="cls-6" d="M7.57,51.33l.1.09.15.15c.36.38.41.42.59.42a2.17,2.17,0,0,0,.69-.19c.08,0,.13-.09.13-.13s-.07-.1-.19-.21l-.2-.18a1.08,1.08,0,0,0-.5-.27,1.41,1.41,0,0,0-.77.32" transform="translate(0 -0.96)"/><path class="cls-6" d="M11.89,54.69a3,3,0,0,1,.37.19l.29.19a1.05,1.05,0,0,0,.3,0,.73.73,0,0,0,.22,0l.39-.15.38-.13c.1,0,.16-.09.16-.15s-.08-.06-.2-.1a1.13,1.13,0,0,1-.28-.09c-.46-.18-.52-.21-.69-.21a1.23,1.23,0,0,0-.94.45" transform="translate(0 -0.96)"/><path class="cls-6" d="M16.58,58.43c.13-.3.21-.35.64-.37s.93-.88.93-1.46c0-.06,0-.11,0-.11a.31.31,0,0,0-.12.06,2.54,2.54,0,0,1-.28.17l-.54.24a1.26,1.26,0,0,0-.67,1,1.35,1.35,0,0,0,.09.45" transform="translate(0 -0.96)"/><path class="cls-6" d="M50.45,54l.07-.21.08-.26a1.49,1.49,0,0,1,.2-.31,1.49,1.49,0,0,0,.29-.92.73.73,0,0,0-.1-.36.46.46,0,0,1-.06-.18.12.12,0,0,1,0-.08.13.13,0,0,1,.07-.06h0a.35.35,0,0,1,.19.13c.08.1.15.15.19.15s.17-.14.22-.35l0-.19a1.79,1.79,0,0,0-.16-.52.41.41,0,0,1-.06-.19.12.12,0,0,1,.11-.12.48.48,0,0,1,.24.16.23.23,0,0,0,.14.08c.12,0,.2-.12.29-.41a1.42,1.42,0,0,0,.08-.29c0-.06,0-.09-.07-.09H52.2L52,50a1.57,1.57,0,0,1-1-.51l-.52-.63a5.62,5.62,0,0,1-.46-.61L49.52,48c-.07,0-.11-.1-.11-.15s.07-.12.18-.12a4.74,4.74,0,0,1,.95.34,5.77,5.77,0,0,0,1.89.42,1.62,1.62,0,0,0,1.62-1.59,2.41,2.41,0,0,0-.74-1.54.72.72,0,0,0-.34-.22.1.1,0,0,0-.11.1.48.48,0,0,0,.06.21.59.59,0,0,1,0,.17c0,.09,0,.14-.09.14s-.24-.19-.34-.53-.37-.66-.93-.94A1.91,1.91,0,0,0,51,44s-.06,0-.06.09a.42.42,0,0,0,.08.22.78.78,0,0,1,.14.35v0c0,.07,0,.11-.1.11s-.14,0-.42-.45a2.22,2.22,0,0,0-.83-.63.92.92,0,0,0-.32-.07h0c-.07,0-.12,0-.12.07a.68.68,0,0,0,.09.17l0,.11a.08.08,0,0,1-.08.09,1.91,1.91,0,0,1-.73-.59,1.83,1.83,0,0,1-.49-1.11,1.44,1.44,0,0,1,1.44-1.34,1.14,1.14,0,0,1,.48.09l.65.34.76.5a3.13,3.13,0,0,0,1.4.5,2.23,2.23,0,0,0,.59-.11c.18,0,.29-.13.29-.19v0l-.06,0-.41,0a3.61,3.61,0,0,1-1.15-.52L51.3,41l-.76-.32s-.09-.06-.09-.09a.08.08,0,0,1,.08-.07l.22,0,.7.21a4.84,4.84,0,0,1,.86.39,3.93,3.93,0,0,0,1.65.59.69.69,0,0,0,.74-.69,2.67,2.67,0,0,0-.07-.53.66.66,0,0,0-.11-.24s-.07-.08-.09-.08-.09.06-.09.15v.24c0,.34-.14.46-.51.46a5,5,0,0,1-1.67-.5,5.29,5.29,0,0,0-2-.48,2.61,2.61,0,0,0-2.63,2.44c0,1.13.75,2,2.28,2.61l1.58.66c1.3.53,1.78.92,1.78,1.42s-.39.7-1,.7a4.05,4.05,0,0,1-1.2-.27A10.93,10.93,0,0,0,47.7,47a4,4,0,0,0-3.14,1.2.31.31,0,0,1-.26.14.53.53,0,0,1-.26-.1,1,1,0,0,0-.41-.14.69.69,0,0,0-.44.25L43,48.6a.24.24,0,0,1-.16.11c-.14,0-.38-.23-.53-.5a1.79,1.79,0,0,1-.18-.48,2.39,2.39,0,0,1,0-.51l0-.35,0-.37c0-.18.05-.28.06-.31a.09.09,0,0,1,.09-.08c.1,0,.14.09.14.29v.21c0,.52.21,1,.44,1s.34-.33.47-1c0-.13.08-.2.14-.2s.12.09.18.37a1.45,1.45,0,0,0,.28.59.3.3,0,0,0,.21.15c.15,0,.25-.23.33-.76,0-.21.09-.34.16-.34a.12.12,0,0,1,.08,0l.13.21a.44.44,0,0,0,.2.18.54.54,0,0,0,.22.08.25.25,0,0,0,.17-.08c.09-.07.13-.13.13-.15a.34.34,0,0,0-.11-.16,1.73,1.73,0,0,1-.33-.62L45,45.54c0-.07-.06-.12-.09-.13l-.06,0-.11,0-.39.11-.12,0a.08.08,0,0,1-.09-.09.41.41,0,0,1,.15-.21,2.73,2.73,0,0,0,.86-1.91,1.87,1.87,0,0,1,.37-1.1c0-.07.09-.11.12-.11s.11.06.11.16a.83.83,0,0,1-.06.27.54.54,0,0,0,0,.22v.07l0,.12.2-.08.22-.26a1.3,1.3,0,0,0,.25-.76.64.64,0,0,0-.15-.43c-.12-.14-.2-.19-.29-.19h-.12l-.13,0c-.12,0-.18,0-.18-.11l0-.15,0-.2-.11-.46-.1-.23,0-.18-.13.09-.28.17a.8.8,0,0,0-.22.2c-.27.32-.28.34-.39.34s-.11,0-.11-.08v-.07a1.85,1.85,0,0,0,.06-.39,1.8,1.8,0,0,0-.52-1.08,1.67,1.67,0,0,0-.6,1.17v.22c0,.09,0,.13-.08.13h0a.26.26,0,0,1-.13-.09l-.22-.3-.3-.24-.15-.13-.07.15a1.88,1.88,0,0,0-.26.89c0,.25,0,.32-.09.32a.24.24,0,0,1-.12,0c-.28-.16-.3-.17-.43-.17a.55.55,0,0,0-.56.59,1.49,1.49,0,0,0,.23.62c.17.3.43.58.54.58s0,0,0-.11v0l0-.32,0-.24v0c0-.07,0-.11.08-.11s.32.5.44,1.48a2.85,2.85,0,0,0,.73,1.8c.09.09.15.16.15.2s0,.06-.08.06a.6.6,0,0,1-.24-.09.41.41,0,0,0-.2-.06.51.51,0,0,0-.43.45l-.17,1.06-.13,1.48a4.1,4.1,0,0,0,.11,1.12,4.38,4.38,0,0,1,.13.88A2.39,2.39,0,0,1,40,52.67L38.76,53a1.63,1.63,0,0,0-1.2,1.62.83.83,0,0,1,.54-.22l.35-.06a.62.62,0,0,0,.52-.3l.32-.35a.51.51,0,0,1,.29-.21s.08,0,.08.11a.7.7,0,0,1-.13.3.9.9,0,0,0-.14.48,1.13,1.13,0,0,0,.3.73,1,1,0,0,1,.08-.22,2.93,2.93,0,0,1,.28-.39,2,2,0,0,0,.44-.84c0-.29,0-.38.1-.38s.08,0,.11.18a.16.16,0,0,0,0,.11.17.17,0,0,0,.12.07.33.33,0,0,0,.14-.07,1.33,1.33,0,0,0,.3-.26A1.35,1.35,0,0,0,41.5,53a1.29,1.29,0,0,0,.09-.36v-.24c0-.06,0-.11.06-.11s.14.1.2.2.07.1.12.1h0a.38.38,0,0,0,.17-.08,1.13,1.13,0,0,0,.37-.69l0-.35-.08-.28v0a.1.1,0,0,1,.09-.11c.09,0,.18.12.3.39s.12.19.17.19.16-.06.34-.32l.16-.24a.28.28,0,0,0,.06-.18.33.33,0,0,0-.06-.19l-.15-.22a.44.44,0,0,1,0-.19,1.79,1.79,0,0,1,.28-.87c.13-.24.21-.4.24-.47s.06-.11.1-.11.06,0,.06.1v.5c0,.07.07.09.16.09a.5.5,0,0,0,.19,0l.46-.16a2.73,2.73,0,0,0,.43-.21,2.53,2.53,0,0,1,1.31-.49,2.26,2.26,0,0,1,.88.27.49.49,0,0,0,.19.06.25.25,0,0,0,.22-.24.43.43,0,0,0-.07-.23.85.85,0,0,1-.12-.28.08.08,0,0,1,.09-.08s.1,0,.14.1l.43.74a2.17,2.17,0,0,0,1.19,1.14l.81.18c.25.06.32.16.32.47a1.61,1.61,0,0,1-.74,1.39l-.67.43a1.2,1.2,0,0,0-.45.94,5.46,5.46,0,0,0,.13.95l.13-.13.32-.18.27-.28.15-.41.15-.37c.07-.18.16-.3.22-.3s.1.1.1.28v.12a1.39,1.39,0,0,0,.24.79" transform="translate(0 -0.96)"/><path class="cls-6" d="M39.47,59.62c.23-.21.26-.23.89-.36a1,1,0,0,0,.86-.83.72.72,0,0,1,.46-.63,1,1,0,0,0,.24-.19.18.18,0,0,1,.09-.07.07.07,0,0,1,.07.08.77.77,0,0,1-.12.31.7.7,0,0,0-.08.35,1.21,1.21,0,0,0,.23.74,1.06,1.06,0,0,1,.46-.52,1.44,1.44,0,0,0,.58-1.22c0-.29.08-.43.16-.43a.1.1,0,0,1,.08,0l.13.28a.12.12,0,0,0,.12.06.42.42,0,0,0,.23-.13l.26-.24a1.33,1.33,0,0,0,.23-.78c0-.16.06-.26.13-.26s.07,0,.09.09l.11.37c0,.09.08.15.13.15a.31.31,0,0,0,.15-.09,1.69,1.69,0,0,0,.26-.28.69.69,0,0,0,.13-.37v-.32a.37.37,0,0,1,.07-.2s.07-.08.09-.08.08,0,.1.1l.07.2a.22.22,0,0,0,.18.15c.1,0,.19-.09.34-.3l.12-.15a.5.5,0,0,0,.13-.23.29.29,0,0,0-.08-.14A2,2,0,0,1,46,53.47a3.46,3.46,0,0,1,1-2.1,2.88,2.88,0,0,0,.67-1.49c0-.11-.05-.16-.15-.16a.46.46,0,0,0-.22.07l-.14.06a.17.17,0,0,1-.12-.08l-.13-.15-.1-.15a.19.19,0,0,0-.15-.09l-.14,0-.17,0c-.19,0-.26.07-.26.26v.19a1,1,0,0,1-.33.59l-.36.31a2.3,2.3,0,0,0-.77,1.42,3.31,3.31,0,0,0,.16.81,4,4,0,0,1,.23,1c0,.89-1.37,2.07-3.89,3.35-1.28.65-1.6,1-1.6,1.92l0,.33" transform="translate(0 -0.96)"/><path class="cls-6" d="M38.24,40.13v.46a1.18,1.18,0,0,1,0,.3,2.3,2.3,0,0,0-.08.42,1.5,1.5,0,0,0,.26.9,1.34,1.34,0,0,1,.19.62c0,.08,0,.12-.08.12a.14.14,0,0,1-.09-.05l-.15-.21c-.12-.16-.23-.2-.53-.2l-.32,0a3.8,3.8,0,0,1,.22.65c.15.6.17.65.5,1s.37.33.37.44a.14.14,0,0,1-.13.15l-.13,0h-.07c-.1,0-.19.19-.19.4a1.35,1.35,0,0,0,.12.47.7.7,0,0,0,.13.22l.18.19a.23.23,0,0,1,.08.18c0,.1-.05.17-.12.17a.4.4,0,0,1-.16-.06l-.13,0c-.09,0-.13,0-.13.15l0,.27.12.49a.85.85,0,0,0,.2.35.86.86,0,0,0,.28.22l.37.17A.16.16,0,0,1,39,48a.13.13,0,0,1-.13.13l-.19,0-.19,0c-.19,0-.2,0-.2.16a1,1,0,0,0,0,.29l.07.29c.08.32.18.49.29.49a.29.29,0,0,0,.14-.08A2.36,2.36,0,0,1,40,48.84a3.19,3.19,0,0,1,.89.1l.18,0s.06,0,.06-.21l0-.34.08-.57,0-.43v-.24l-.15.13a1.06,1.06,0,0,1-.84.39c-.85,0-1.34-1-1.34-2.64a17.81,17.81,0,0,1,.29-2.78,3.55,3.55,0,0,0,.06-.52,2,2,0,0,0-1.07-1.64" transform="translate(0 -0.96)"/><path class="cls-6" d="M39.51,44.29l.17-.17.16-.14a.88.88,0,0,0,.25-.57.7.7,0,0,0-.06-.27c-.07-.14-.19-.26-.27-.26s-.12.15-.14.39l0,.28,0,.28,0,.28v.18" transform="translate(0 -0.96)"/><path class="cls-6" d="M37.87,51.89a.82.82,0,0,1,.43.33.81.81,0,0,0,.74.38,1.09,1.09,0,0,0,.26,0l.25-.08.18,0c.09,0,.15-.07.15-.1s-.15-.16-.37-.31a3.47,3.47,0,0,0-.45-.26.93.93,0,0,0-.42-.12,1.33,1.33,0,0,0-.77.25" transform="translate(0 -0.96)"/><path class="cls-6" d="M40.4,57.33a6.94,6.94,0,0,0,.82-.41,6.09,6.09,0,0,1,.54-.29c.34-.18.5-.31.5-.41s-.21-.19-.57-.19a1.22,1.22,0,0,0-1.31,1.09l0,.21" transform="translate(0 -0.96)"/><path class="cls-6" d="M47.94,52.61a4.6,4.6,0,0,1,.48-.12h.34a.82.82,0,0,0,.22-.15l.26-.18c.37-.26.39-.27.39-.35s-.15-.16-.46-.16c-.59,0-.94.28-1.23,1" transform="translate(0 -0.96)"/><path class="cls-3" d="M9.86,7.84l-.09-.26,0-.14c0-.16.08-.24.29-.32a1.84,1.84,0,0,0,.63-.33l.2-.19h0c.06,0,.1.06.1.14a3.36,3.36,0,0,1-.52,1.12c-.19.33-.28.53-.36.53s-.18-.14-.2-.31l0-.23" transform="translate(0 -0.96)"/><path class="cls-3" d="M8.76,7.1l.32.17a.21.21,0,0,1,.13.18l0,.12a1,1,0,0,0,0,.39.32.32,0,0,1-.37.33c-.06,0,0,0-.18-.2l-.4-.47A1.64,1.64,0,0,1,8,6.79v0c0-.1,0-.14.12-.14a.39.39,0,0,1,.2.09l.5.41" transform="translate(0 -0.96)"/><path class="cls-3" d="M9.88,9l.3-.18.17,0c.2,0,.25.06.25.28s-.2.47-.57,1.41c-.17.41-.2.65-.44.65s-.48-.22-.7-.75l-.24-.59a2.57,2.57,0,0,1-.24-.83.24.24,0,0,1,.27-.23A.52.52,0,0,1,9,8.9L9.17,9l.22,0h.1l.39,0" transform="translate(0 -0.96)"/><path class="cls-3" d="M44.58,7.91l-.15-.33,0-.14c0-.16.07-.23.31-.32a2.14,2.14,0,0,0,.61-.33l.21-.19h0c.05,0,.09.06.09.14a2.92,2.92,0,0,1-.48,1.06c-.2.33-.32.59-.4.59s-.18-.14-.2-.31l0-.16" transform="translate(0 -0.96)"/><path class="cls-3" d="M43.43,7.1l.31.17a.25.25,0,0,1,.14.22v.08l-.09.33-.06.37a.08.08,0,0,1-.09.08h0a1.09,1.09,0,0,1-.4-.26l-.28-.47a1.84,1.84,0,0,1-.25-.52c0-.11,0-.21-.07-.31V6.73c0-.09,0-.13.11-.13a.46.46,0,0,1,.21.09l.5.41" transform="translate(0 -0.96)"/><path class="cls-3" d="M44.56,9l.28-.18.11,0a.47.47,0,0,1,.44.41c0,.19-.25.3-.35.55l-.2.84c-.15.4-.35.6-.59.6s-.49-.23-.69-.75l-.24-.59a2.46,2.46,0,0,1-.24-.78.25.25,0,0,1,.27-.28.48.48,0,0,1,.26.07,1.3,1.3,0,0,0,.23.13l.21,0h.1l.41,0" transform="translate(0 -0.96)"/><path class="cls-3" d="M8.3,41.82l-.09-.28,0-.08s0-.05.07-.05a.45.45,0,0,1,.22.11c.09.07.14.06.27.1.5.13.61.22.61.47l0,.31-.07.28c0,.11-.07.16-.12.16a1.68,1.68,0,0,1-.4-.29l-.19-.26-.26-.47" transform="translate(0 -0.96)"/><path class="cls-3" d="M10.55,42.28l-.24.43-.1.11h0c-.09,0-.19-.23-.2-.46L10,42c0-.15.12-.22.36-.26a1.09,1.09,0,0,0,.37-.11l.29-.21h0c.05,0,.08,0,.08.09v0l-.13.32-.41.44" transform="translate(0 -0.96)"/><path class="cls-3" d="M10.06,43.55l.3-.15a.43.43,0,0,1,.14,0c.15,0,.25.11.25.3a2.32,2.32,0,0,1-.39.91c-.24.44-.43.74-.62.74s-.64-.42-1-1.13a1.19,1.19,0,0,1-.14-.52c0-.23.1-.36.3-.36a.47.47,0,0,1,.21.06l.17.11a.82.82,0,0,0,.47.15.66.66,0,0,0,.32-.07" transform="translate(0 -0.96)"/><path class="cls-3" d="M42.33,41.3l.26.17a2.88,2.88,0,0,0,.37.2c.29.12.39.16.39.27a1.12,1.12,0,0,1,0,.22,1.1,1.1,0,0,0-.06.26c0,.25-.18.31-.28.31s-.26-.19-.46-.56a3.45,3.45,0,0,1-.3-.74v-.07s0-.07.08-.07h0" transform="translate(0 -0.96)"/><path class="cls-3" d="M44.84,42l-.43.43a1.32,1.32,0,0,0-.18.41l-.13.05h0a.2.2,0,0,1-.2-.19l0-.32V42A.19.19,0,0,1,44,41.8l.39-.11.41-.2.18-.08c.05,0,.08.05.08.11a.35.35,0,0,1,0,.12l-.19.31" transform="translate(0 -0.96)"/><path class="cls-3" d="M43,43.21l.28.21a.51.51,0,0,0,.25.06,1.08,1.08,0,0,0,.44-.12l.24-.11a.56.56,0,0,1,.15,0c.14,0,.26.16.26.36a2,2,0,0,1-.48,1l-.21.43c-.16.23-.27.32-.4.32s-.33-.13-.66-.78a2.46,2.46,0,0,1-.33-1c0-.2.1-.33.25-.33a.33.33,0,0,1,.21,0" transform="translate(0 -0.96)"/><path class="cls-6" d="M9.47,9.57H9.23a.1.1,0,0,0-.09.06l0,.09.09.45.08.39c0,.21.11.3.27.3s.3-.13.32-.36l0-.41,0-.42a.21.21,0,0,0,0-.12.18.18,0,0,0-.1,0h0l-.3.05" transform="translate(0 -0.96)"/><path class="cls-6" d="M44.13,9.57h-.22a.11.11,0,0,0-.09.06l-.06.09.09.45.08.39c0,.21.08.3.24.3a.36.36,0,0,0,.35-.36l0-.41c0-.27,0-.41,0-.42a.17.17,0,0,0-.06-.12.15.15,0,0,0-.09,0h0l-.3.05" transform="translate(0 -0.96)"/><path class="cls-6" d="M9.64,44l-.21,0h0c-.12,0-.18.06-.18.2a1.8,1.8,0,0,0,.34.8.19.19,0,0,0,.15.08c.12,0,.2-.23.26-.6l.06-.28v0C10,44,10,44,9.9,44h0l-.22,0" transform="translate(0 -0.96)"/><path class="cls-6" d="M43.2,44.24l0,.35c0,.16.14.32.27.32s.3-.26.36-.65a1.36,1.36,0,0,0,0-.26c0-.14,0-.18-.23-.18h-.31c-.11,0-.16.1-.16.33v.09" transform="translate(0 -0.96)"/><path class="cls-3" d="M22.29,26.24h2a1,1,0,0,1,1-.68,1.1,1.1,0,0,1,1,.68h1.61A1.13,1.13,0,0,1,29,25.56a1.08,1.08,0,0,1,1,.68h1.5a1.09,1.09,0,0,1,1-.68,1.14,1.14,0,0,1,1,.56l.08.12h2.08v9.62H33.77v3.7H31.64v-3.7h-5.4v3.7H24.11V35.83H22.29V26.24" transform="translate(0 -0.96)"/><rect class="cls-5" x="23.06" y="26.06" width="11.81" height="8.1"/><path class="cls-6" d="M24.29,28.88a.56.56,0,1,0,.56.56.56.56,0,0,0-.56-.56" transform="translate(0 -0.96)"/><path class="cls-7" d="M24.29,28.88a.56.56,0,1,0,.56.56A.56.56,0,0,0,24.29,28.88Z" transform="translate(0 -0.96)"/><path class="cls-6" d="M33.57,28.88a.56.56,0,1,0,0,1.12.56.56,0,1,0,0-1.12" transform="translate(0 -0.96)"/><path class="cls-7" d="M33.57,28.88a.56.56,0,1,0,0,1.12.56.56,0,1,0,0-1.12Z" transform="translate(0 -0.96)"/><path class="cls-6" d="M24.29,33.28a.56.56,0,0,0-.56.56.57.57,0,0,0,.58.56.55.55,0,0,0,.54-.56.56.56,0,0,0-.56-.56" transform="translate(0 -0.96)"/><path class="cls-7" d="M24.29,33.28a.56.56,0,0,0-.56.56.57.57,0,0,0,.58.56.55.55,0,0,0,.54-.56A.56.56,0,0,0,24.29,33.28Z" transform="translate(0 -0.96)"/><path class="cls-6" d="M33.57,33.28a.56.56,0,1,0,0,1.12.56.56,0,0,0,0-1.12" transform="translate(0 -0.96)"/><path class="cls-7" d="M33.57,33.28a.56.56,0,1,0,0,1.12.56.56,0,0,0,0-1.12Z" transform="translate(0 -0.96)"/><path class="cls-6" d="M26.05,31.58A3.56,3.56,0,0,0,29,33a3.33,3.33,0,0,0,2.75-1.42,3.62,3.62,0,0,0-2.8-1.3,3.67,3.67,0,0,0-2.86,1.3" transform="translate(0 -0.96)"/><path class="cls-3" d="M26.62,31.58a3.4,3.4,0,0,1,2.26-.87,3.32,3.32,0,0,1,2.25.88,2.86,2.86,0,0,1-2.26,1,3.14,3.14,0,0,1-2.25-1" transform="translate(0 -0.96)"/><path class="cls-6" d="M27.57,31.39a2.33,2.33,0,0,0,2.64,0,3.1,3.1,0,0,0-1.34-.32,2.72,2.72,0,0,0-1.3.32" transform="translate(0 -0.96)"/><rect class="cls-3" x="22.9" y="26.48" width="12.14" height="0.41"/><rect class="cls-8" x="22.9" y="26.48" width="12.14" height="0.41"/><path class="cls-6" d="M24.76,26.91v1.16a.49.49,0,0,0,.5.49.45.45,0,0,0,.51-.49V26.93c0-.44-.18-.72-.47-.72a.82.82,0,0,0-.22.06l-.13.08a.42.42,0,0,0-.11.15.7.7,0,0,0-.08.2v.21" transform="translate(0 -0.96)"/><path class="cls-6" d="M28.41,27.87v.2a.49.49,0,0,0,.5.49.46.46,0,0,0,.52-.49V26.93c0-.44-.19-.72-.47-.72s-.55.28-.55.7v1" transform="translate(0 -0.96)"/><path class="cls-6" d="M32,26.91v1.16a.49.49,0,0,0,.5.49.46.46,0,0,0,.52-.49V26.93c0-.44-.18-.72-.47-.72a.78.78,0,0,0-.23.06l-.13.08a.58.58,0,0,0-.11.15.7.7,0,0,0-.08.2v.21" transform="translate(0 -0.96)"/><rect class="cls-6" x="24.5" y="35.75" width="1.1" height="1.42"/><rect class="cls-6" x="24.5" y="37.49" width="1.1" height="0.45"/><rect class="cls-6" x="32.03" y="35.75" width="1.11" height="1.42"/><rect class="cls-6" x="32.03" y="37.49" width="1.11" height="0.45"/><path class="cls-3" d="M92.72,2.17V3h-.56C91.34,3,90,3,90,5.6V16.22c0,6.49-2.83,9.65-8.64,9.65-6.57,0-9.62-2.62-9.62-8.24V5.6C71.69,3,70.28,3,69,3h-.26V2.17H78.6V3h-.26C77.12,3,75.6,3,75.6,5.6V17.09c0,4.95,2.07,7.36,6.32,7.36s6.33-2.59,6.33-7.49V5.6C88.25,3,86.82,3,85.77,3h-.52V2.17h7.47" transform="translate(0 -0.96)"/><path class="cls-3" d="M103.33,24.51v.85H95v-.85h.33c2.72,0,3.07-2.07,3.07-4.4V6.17A2.82,2.82,0,0,0,95.34,3H95V2.17h6.52l14.1,17.28V6.31c0-3-2.08-3.29-3-3.29h-.59V2.17h8.37V3h-.36c-1.46,0-3,.34-3,4.4V25.48h-1.23l-16-19.36v14c0,2.33.34,4.41,3.14,4.41h.33" transform="translate(0 -0.96)"/><path class="cls-3" d="M147.76,20.45l5.1-14.26c.91-2.43.32-3.17-1.79-3.17h-.42V2.17h6.6V3h-.15c-.71,0-1.56.21-2.18,1.8l-7.73,20.63h-1.47L137.32,5a2.56,2.56,0,0,0-2.86-2h-.19V2.17h9.59V3h-.63c-1.64,0-1.95,1-1.49,2.27l6,15.16" transform="translate(0 -0.96)"/><path class="cls-3" d="M190,2.17c5.13,0,7.68,1.89,7.68,5.78,0,3.3-2.57,5-4.6,5.79l-.15.06,5.69,8.66a3.57,3.57,0,0,0,3.22,2v.86h-5.94L189,14.47h-2.57v7.22c0,2.62,1.17,2.82,2.81,2.82h.46v.85H179.64v-.85h.46c1.13,0,2.44-.51,2.44-1.94V5.7C182.54,3,181,3,180.1,3h-.46V2.17H190m-3.56,1.09V13.53h2c3.61,0,5.2-1.61,5.2-5.38a4.69,4.69,0,0,0-4.94-5A17.54,17.54,0,0,0,186.47,3.26Z" transform="translate(0 -0.96)"/><path class="cls-3" d="M214.13,21c0-2.82-2.42-3.94-4.69-5.11-2.64-1.38-5.69-2.81-5.69-7.09s3.15-6.82,7.66-6.82a27.39,27.39,0,0,1,4.85.55L216.58,7l-.87.13c-.4-2.38-1.64-4.2-4.31-4.2A4.06,4.06,0,0,0,207,7.25c0,2.62,2.41,3.69,4.66,4.82,2.76,1.39,5.92,2.82,5.92,7.14,0,4.79-4.27,6.93-8.21,6.93a11.69,11.69,0,0,1-5.49-1.31l-.56-5,.85-.15c.64,3.33,2.75,5.27,5.55,5.27s4.37-1.63,4.37-4" transform="translate(0 -0.96)"/><path class="cls-3" d="M230.67,2.17V3h-.32c-1.32,0-2.54.24-2.54,2.05v17.4c0,1.8,1.22,2,2.54,2h.32v.85H221v-.85h.32c1.32,0,2.55-.24,2.55-2V5.07c0-1.81-1.23-2.05-2.55-2.05H221V2.17h9.68" transform="translate(0 -0.96)"/><path class="cls-3" d="M132.92,2.17V3h-.32c-1.33,0-2.55.24-2.55,2.05v17.4c0,1.8,1.22,2,2.55,2h.32v.85h-9.68v-.85h.32c1.32,0,2.54-.24,2.54-2V5.07c0-1.81-1.22-2.05-2.54-2.05h-.32V2.17h9.68" transform="translate(0 -0.96)"/><path class="cls-3" d="M326,35.66l.08,6.16-1,.25c-.22-2.69-.83-4.88-5.14-4.88h-5.78V48.57h5c2.44,0,3.1-1.37,3.38-3.72h1v9.52h-1c-.15-2.27-.69-4-3.36-4h-5v10c0,2.91,2.5,2.91,5.15,2.91,4.75,0,7-.3,8.29-5.11l1,.22-1.33,6.41h-21.6V63.7h.42c1.65,0,3.19-.32,3.19-2.58V39.3c0-2.26-1.54-2.57-3.19-2.57h-.42V35.66H326" transform="translate(0 -0.96)"/><path class="cls-3" d="M208.3,35.66c6.44,0,9.64,2.38,9.64,7.25,0,4.14-3.23,6.24-5.78,7.27l-.19.08,7.14,10.86c1.14,1.76,2.07,2.45,4,2.55v1.09H215.7L207,51.1h-3.21v9.06c0,3.28,1.45,3.54,3.51,3.54h.58v1.06H195.27V63.7h.58c1.41,0,3.06-.64,3.06-2.45V40.1c0-3.37-2-3.37-3.06-3.37h-.58V35.66h13M203.83,37V49.91h2.48c4.53,0,6.53-2,6.53-6.74,0-3.84-2.47-6.32-6.2-6.32A20,20,0,0,0,203.83,37Z" transform="translate(0 -0.96)"/><path class="cls-3" d="M237.07,35.66v1.06h-.41c-1.65,0-3.19.32-3.19,2.57V61.12c0,2.26,1.54,2.57,3.19,2.57h.41v1.06H224.92V63.69h.41c1.66,0,3.19-.31,3.19-2.57V39.29c0-2.25-1.53-2.57-3.19-2.57h-.41V35.66h12.15" transform="translate(0 -0.96)"/><path class="cls-3" d="M235.71,2.17h15.35c.77,0,1.76-.2,1.92-1.21h.74L253.13,7h-.82c-.05-1.39-.25-3.43-2.5-3.43h-4.68V21.49c0,2.79,1.34,3,2.84,3h.49v.85H237.89v-.85h.49c1.76,0,2.83-.14,2.83-3v-18h-4.73c-2.41,0-2.64,1.06-3.11,3.41h-.83l.53-6h.68a1.79,1.79,0,0,0,2,1.16" transform="translate(0 -0.96)"/><path class="cls-3" d="M277.45,2.17V3a3.62,3.62,0,0,0-2.74,1.84l-5.89,9.07v7.42c0,2.94,1.07,3.15,2.83,3.15h.49v.85H261.57v-.85h.49c1.84,0,2.84-.46,2.84-2.88V14.49l-6.39-9.13C257.53,4,256.8,3,255.25,3h-.2V2.17h9.58V3h-.29c-1.84,0-2,1-1.19,2.09l5,7.68,4.39-6.94c1-1.51,1.29-2.83-1.19-2.83h-.38V2.17h6.53" transform="translate(0 -0.96)"/><path class="cls-3" d="M284.48,13.93A12,12,0,0,1,296.39,1.66c7.28,0,12.36,4.72,12.36,11.47,0,7.38-5.13,12.74-12.2,12.74s-12.07-5-12.07-11.94m4.31-1.17c0,5.73,2.53,11.89,8.09,11.89,5.08,0,7.56-3.53,7.56-10.78,0-5.33-2.85-11-8.12-11C289.33,2.88,288.79,10.44,288.79,12.76Z" transform="translate(0 -0.96)"/><path class="cls-3" d="M311.39,25.36v-.85h.33c1.32,0,2.54-.24,2.54-2V5.07C314.26,3.26,313,3,311.72,3h-.33V2.17H327.6l.06,4.91-.78.2c-.18-2-.64-3.9-3.41-3.9h-5.29v9.07h4.64c1.92,0,2.2-1.51,2.21-2.72h.77v7.43H325c0-1.45-.36-3.29-2.74-3.29h-4.12v8.6c0,2,1.73,2,3.26,2h.29v.85H311.39" transform="translate(0 -0.96)"/><path class="cls-3" d="M70.62,50.19A15.28,15.28,0,0,1,75.4,38.91,15.65,15.65,0,0,1,86,35a22.47,22.47,0,0,1,9.85,2.09l.31,6.74-1,.12c-1.09-3.9-2.92-7.48-9.08-7.48-6.34,0-10.27,5-10.27,13.09,0,7.18,3.18,14,10.89,14a11.51,11.51,0,0,0,9.74-4.62l.76,1.43A13.88,13.88,0,0,1,86,65.53c-9.38,0-15.37-5.54-15.37-15.34" transform="translate(0 -0.96)"/><path class="cls-3" d="M133.36,41.29l-1,18c-.18,4,1.06,4.33,3.73,4.43h.25v1.06h-9.81V63.69h.37c3.31-.13,3.51-2,3.66-4.66l1.14-18.39c.15-2.51-1.22-3.93-3.54-3.93h-.33V35.65h8.23L146,57.7s9.25-21.82,9.34-22.06h8.08v1.07h-.16c-3.27,0-3.85,1-3.6,5.13l1.12,19.3c.17,2.26,1.36,2.46,3.58,2.55v1H152.28v-1h.08c2-.12,3.39-.2,3.39-2.17l0-2.09s-.89-18.61-.89-18.61-10,23.92-10.06,24.15h-.88c-.1-.24-10.52-23.67-10.52-23.67" transform="translate(0 -0.96)"/><path class="cls-3" d="M241.65,64.75V63.69h.42c1.65,0,3.19-.31,3.19-2.57V39.29c0-2.25-1.54-2.57-3.19-2.57h-.42V35.66h13c4.84,0,8.89,1.21,11.72,3.85a14.08,14.08,0,0,1,4.26,10.63A15.36,15.36,0,0,1,266.19,61c-2.85,2.82-6.84,3.79-10.87,3.79H241.65M250.2,37V59.89c0,3.09,1.31,3.58,4.43,3.58,7.35,0,10.7-6.33,10.7-12.53,0-9.64-4-14-12.16-14C252.43,36.91,250.89,37,250.2,37Z" transform="translate(0 -0.96)"/><path class="cls-3" d="M295.4,63.26V56.12c0-1.56-1.14-2.38-3.29-2.38h-.34v-1H303v1h-.34a2.13,2.13,0,0,0-2.39,2.38v7.94A34.08,34.08,0,0,1,290,65.6c-9.61,0-15.81-6.22-15.81-15.86,0-10.24,8.18-14.91,15.89-14.91a31.16,31.16,0,0,1,9.24,1.44l.46,6.94-1,.06c-1.21-5-3.44-7-8.45-7-6.76,0-10.86,5-10.86,13C279.5,56.68,283,64,290.69,64a12,12,0,0,0,4.71-.73" transform="translate(0 -0.96)"/><path class="cls-3" d="M177,49.69V59.92c0,2.85.9,3.66,3.85,3.66,3.55,0,6.22-2.92,6.22-6.89,0-4.47-2.72-7-7.28-7H177m0-13V48.41h2.19c4,0,6.21-1.94,6.21-5.66,0-4.11-1.94-6-5.77-6Zm6,12.18c3.66.27,5.61,1.08,7.25,2.76a6.72,6.72,0,0,1,1.94,4.85c0,4.57-4.19,8.22-9.63,8.22H168.31v-1h.57c1.41,0,3.06-.67,3.06-2.48V40.1c0-3.37-2-3.37-3.06-3.37h-.57V35.67h12.91c6.07,0,9.41,2.2,9.41,6.36,0,4.61-4.06,6.32-7.63,6.89" transform="translate(0 -0.96)"/><path class="cls-3" d="M110.19,35.66,101,60.77c-.68,1.78-1.89,2.89-3.68,2.89h-.1v1.09H106V63.66h-.39c-2.13,0-3.58-.69-2.65-3.44l2.11-5.86h9.17l2.29,6.39c.66,2-.2,2.94-2.39,2.94h-.25v1.07h11.26V63.69h-.09c-1.5,0-2.53-.79-3.23-2.79l-9.48-25.24h-2.19m-.51,5.93,4.07,11.34h-8.14Z" transform="translate(0 -0.96)"/><path class="cls-3" d="M175,2.17l.06,4.9-.78.2c-.18-2.14-.67-3.89-4.1-3.89h-4.6v9.07h3.95c1.94,0,2.47-1.09,2.69-3H173v7.58h-.79c-.12-1.81-.55-3.22-2.68-3.22h-4v8c0,2.32,2,2.32,4.1,2.32,3.79,0,5.54-.24,6.6-4.07l.78.17L176,25.35H158.82V24.5h.32c1.32,0,2.55-.25,2.55-2.05V5.06c0-1.8-1.23-2-2.55-2h-.32V2.17H175" transform="translate(0 -0.96)"/></g></svg>